<svg version="1.1" id="Layer_1" xmlns="http://www.w3.org/2000/svg" xmlns:xlink="http://www.w3.org/1999/xlink" x="0px" y="0px"
	 width="100%" viewBox="0 0 1024 1024" enable-background="new 0 0 1024 1024" xml:space="preserve">
<path fill="#000715" opacity="1.000000" stroke="none" 
	d="
M469.000000,1025.000000 
	C312.666656,1025.000000 156.833328,1025.000000 1.000000,1025.000000 
	C1.000000,683.666687 1.000000,342.333344 1.000000,1.000000 
	C342.333344,1.000000 683.666687,1.000000 1025.000000,1.000000 
	C1025.000000,342.333344 1025.000000,683.666687 1025.000000,1025.000000 
	C839.833313,1025.000000 654.666687,1025.000000 469.000000,1025.000000 
M507.699463,652.099854 
	C507.815643,652.258240 507.963165,652.377991 508.218170,652.737732 
	C508.218170,652.737732 508.491333,652.831543 508.855164,653.274353 
	C509.559570,653.906982 510.263947,654.539612 511.149139,655.689514 
	C511.709106,656.136902 512.269043,656.584290 513.040894,657.511963 
	C513.430420,657.861816 513.819885,658.211609 514.305847,658.818970 
	C514.305847,658.818970 514.576721,658.866333 514.714355,659.121094 
	C514.832336,659.280029 514.981934,659.399170 515.268616,659.764404 
	C515.268616,659.764404 515.564392,659.837646 515.741882,660.110229 
	C515.879211,660.283203 516.046387,660.419617 516.280884,660.729675 
	C516.280884,660.729675 516.491089,660.766602 516.827637,661.174561 
	C517.354797,661.633911 517.881958,662.093262 518.449463,662.576538 
	C518.449463,662.576538 518.475281,662.615784 518.845032,663.074341 
	C519.471741,663.532776 520.098450,663.991272 520.730408,664.334106 
	C520.730408,664.334106 520.616516,664.354919 520.955078,664.857788 
	C521.607239,665.319458 522.259399,665.781128 523.057190,666.664795 
	C523.260437,666.914551 523.523010,667.035461 524.174255,667.593262 
	C525.406860,668.465088 526.639465,669.336975 527.878601,670.131042 
	C527.878601,670.131042 527.800659,670.135376 528.023315,670.640320 
	C528.473083,670.960815 528.922791,671.281250 529.411499,671.664734 
	C529.411499,671.664734 529.484131,671.678894 529.932495,672.094604 
	C531.084900,672.920471 532.237366,673.746277 533.437805,674.618042 
	C533.437805,674.618042 533.504089,674.612427 533.885681,674.986755 
	C534.215942,675.114624 534.546204,675.242493 534.879578,675.153442 
	C534.879578,675.153442 534.662842,675.162170 534.924500,675.681152 
	C535.275818,675.831116 535.627075,675.981018 535.961975,676.049805 
	C535.961975,676.049805 535.881775,676.070068 536.188110,676.608887 
	C537.222412,677.268127 538.256714,677.927368 539.376221,678.789185 
	C539.376221,678.789185 539.594788,678.766052 540.091248,679.133362 
	C541.367249,679.834595 542.643250,680.535828 543.917175,681.127380 
	C543.917175,681.127380 543.808105,681.138672 544.177124,681.719360 
	C564.889954,694.255310 587.252380,702.869324 611.189514,705.648865 
	C628.053345,707.607117 645.309570,707.490906 662.299866,706.589661 
	C673.312622,706.005554 684.161804,702.338196 695.010071,700.029846 
	C695.010071,700.029846 694.989380,700.104675 695.818848,700.062073 
	C703.667053,697.238098 711.515259,694.414185 719.411621,691.625305 
	C719.411621,691.625305 719.467468,691.604614 720.036316,691.338196 
	C721.147400,690.783142 722.258545,690.228088 723.508057,689.720947 
	C723.508057,689.720947 723.600403,689.607361 724.147034,689.317444 
	C725.231567,688.731567 726.316040,688.145691 727.442932,687.543030 
	C727.442932,687.543030 727.482239,687.566162 728.049255,687.263489 
	C729.501709,686.413818 730.954163,685.564148 732.596680,684.740601 
	C732.596680,684.740601 732.677795,684.566833 733.257935,684.222656 
	C737.226196,681.517944 741.194458,678.813232 745.088745,676.086487 
	C745.088745,676.086487 745.098511,676.163086 745.720642,675.966553 
	C746.856995,674.992310 747.993347,674.018066 749.620850,672.912537 
	C749.813965,672.644775 750.007141,672.377014 750.060181,672.088440 
	C750.060181,672.088440 750.045776,672.229309 750.653198,672.018066 
	C751.623047,671.205139 752.592896,670.392212 753.281128,669.449158 
	C753.281128,669.449158 753.533813,669.629272 754.009277,669.305176 
	C754.383423,668.891418 754.757568,668.477661 755.668518,667.911316 
	C756.142944,667.357849 756.617310,666.804382 757.641724,666.007935 
	C757.849365,665.677002 758.057007,665.346130 758.036072,665.078491 
	C758.036072,665.078491 758.103577,665.305847 758.707764,665.038330 
	C759.618774,664.095703 760.529846,663.153076 761.207642,662.216492 
	C761.207642,662.216492 761.231934,662.448547 761.818237,662.146362 
	C762.713318,661.195679 763.608337,660.244995 764.287659,659.282959 
	C764.287659,659.282959 764.301025,659.498596 764.883423,659.150513 
	C766.654114,657.142456 768.424744,655.134460 770.070007,653.098572 
	C770.070007,653.098572 770.049438,653.225403 770.585571,653.005005 
	C770.786804,652.684143 770.988098,652.363220 771.086914,652.058228 
	C771.086914,652.058228 771.109131,652.159424 771.602234,651.938477 
	C771.944458,651.520203 772.286682,651.101929 772.682373,650.642578 
	C772.682373,650.642578 772.695923,650.576599 773.054138,650.276917 
	C773.300049,650.074707 773.493347,649.830688 773.289001,649.124817 
	C773.393921,649.272583 773.498901,649.420288 774.072998,649.127686 
	C774.810547,647.468323 779.154907,646.473083 775.017761,643.984009 
	C775.017761,643.984009 775.084045,643.976196 774.853516,643.414307 
	C774.245117,642.894653 773.636719,642.375061 772.923645,641.403259 
	C772.751648,641.108093 772.494873,640.957153 771.948853,640.451538 
	C771.549805,640.087524 771.150757,639.723450 770.725220,639.241699 
	C770.725220,639.241699 770.610474,639.204346 770.283752,638.795227 
	C769.884277,638.478882 769.484802,638.162476 769.064514,637.955688 
	C769.064514,637.955688 769.174866,637.971741 768.960999,637.432068 
	C768.640991,637.228882 768.320984,637.025696 768.007324,636.994324 
	C768.007324,636.994324 768.179138,636.987305 767.980347,636.432068 
	C767.665161,636.212524 767.350037,635.992920 767.036987,635.962036 
	C767.036987,635.962036 767.225708,635.956726 767.003967,635.407410 
	C766.679993,635.195435 766.355957,634.983459 766.050171,634.953857 
	C766.050171,634.953857 766.232178,634.931519 765.953003,634.325867 
	C764.677795,633.099365 763.402588,631.872803 762.102966,630.889038 
	C762.102966,630.889038 762.346558,630.904358 762.108337,630.322754 
	C761.762878,630.100830 761.417480,629.878906 761.114807,629.903687 
	C761.114807,629.903687 761.359741,629.852234 761.096619,629.241821 
	C760.132751,628.343689 759.168823,627.445557 758.158203,626.827881 
	C758.158203,626.827881 758.440552,626.860718 758.227783,626.250671 
	C757.885925,626.003967 757.544067,625.757263 757.287842,625.759644 
	C757.287842,625.759644 757.529419,625.654846 757.218567,625.126404 
	C756.635986,624.559631 756.053406,623.992859 755.479492,623.533081 
	C755.479492,623.533081 755.576233,623.486511 755.226440,623.023499 
	C754.671387,622.489014 754.116333,621.954529 753.159729,621.664185 
	C753.159729,621.664185 753.566345,621.408081 753.221313,620.972839 
	C752.693604,620.452515 752.165955,619.932190 751.364136,619.774658 
	C751.364136,619.774658 751.602600,619.387512 751.328369,618.998840 
	C751.130554,618.742432 750.890442,618.534973 750.452881,618.356567 
	C750.452881,618.356567 750.603333,618.313354 750.257263,617.898621 
	C749.847229,617.569824 749.437195,617.241028 749.018372,616.979736 
	C749.018372,616.979736 749.086365,616.974365 748.908325,616.473816 
	C748.518860,616.112427 748.129395,615.751038 747.704712,615.256287 
	C747.704712,615.256287 747.569458,615.228821 747.326294,614.915222 
	C747.155518,614.709717 746.957581,614.535095 746.707581,614.269775 
	C746.707581,614.269775 746.589294,614.232483 746.251099,613.831177 
	C745.855042,613.506287 745.459045,613.181335 745.043640,612.968811 
	C745.043640,612.968811 745.156494,612.984802 744.958191,612.435425 
	C744.643188,612.222839 744.328247,612.010315 744.044922,611.938354 
	C744.044922,611.938354 744.184509,611.902222 743.911682,611.287231 
	C741.709229,609.070068 739.506775,606.852905 737.275024,604.780273 
	C737.275024,604.780273 737.422302,604.788147 737.129089,604.181274 
	C735.609131,602.595215 734.089172,601.009216 732.547241,599.283203 
	C732.547241,599.283203 732.409302,599.250916 732.094849,598.740662 
	C730.200806,600.261475 728.306763,601.782288 726.356750,603.341919 
	C726.356750,603.341919 726.341370,603.408264 725.974304,603.696960 
	C725.726624,603.895996 725.526367,604.134766 725.319641,604.745422 
	C725.319641,604.745422 725.346863,604.407410 724.977295,604.694397 
	C724.729065,604.893738 724.528076,605.132812 724.353088,605.525208 
	C724.353088,605.525208 724.305786,605.419617 723.851624,605.805176 
	C723.187073,606.520569 722.522461,607.235962 721.415710,608.051819 
	C721.113953,608.202637 720.957764,608.446594 720.343689,609.058044 
	C718.883057,610.371765 717.422363,611.685486 716.006348,613.016663 
	C716.006348,613.016663 716.008423,612.968750 715.466675,613.104126 
	C715.257141,613.400940 715.047607,613.697754 714.988159,613.981689 
	C714.988159,613.981689 714.973816,613.831848 714.348999,614.050537 
	C713.163086,614.994873 711.977173,615.939209 710.925842,616.895264 
	C710.925842,616.895264 710.929871,616.760193 710.315063,616.956116 
	C709.485535,617.604553 708.656067,618.252930 707.932434,618.915039 
	C707.932434,618.915039 707.939575,618.808533 707.254089,619.014771 
	C693.313721,627.763977 678.361023,633.806213 661.844299,635.160278 
	C653.262878,635.863770 644.623413,635.860229 635.311096,635.843811 
	C620.898254,632.648132 606.854492,628.439148 594.061707,620.910706 
	C594.061707,620.910706 594.156372,620.897095 593.820190,620.324280 
	C592.320923,619.382690 590.821594,618.441101 589.273499,617.665588 
	C589.273499,617.665588 589.444885,617.689941 589.119263,617.206848 
	C588.760315,617.064880 588.401367,616.922913 588.061035,616.905823 
	C588.061035,616.905823 588.184692,616.880371 587.951355,616.383606 
	C587.507874,616.058594 587.064331,615.733582 586.576843,615.339050 
	C586.576843,615.339050 586.494873,615.331787 586.126038,614.970459 
	C585.813538,614.832825 585.501038,614.695190 585.210388,614.708008 
	C585.210388,614.708008 585.356079,614.664551 585.017456,614.147522 
	C583.911865,613.243164 582.806274,612.338806 581.656677,611.289490 
	C581.656677,611.289490 581.505920,611.274658 581.222717,610.936462 
	C581.023071,610.714294 580.787842,610.540405 580.264648,611.000549 
	C580.353821,610.806091 580.443054,610.611633 580.159363,609.968628 
	C579.558105,609.480103 578.956787,608.991516 578.320374,608.657593 
	C578.320374,608.657593 578.478760,608.664612 578.178528,608.163147 
	C577.843384,607.972290 577.508240,607.781372 577.188965,607.798218 
	C577.188965,607.798218 577.394714,607.765747 577.123901,607.197449 
	C576.244568,606.316895 575.365295,605.436340 574.368835,604.630127 
	C574.368835,604.630127 574.507568,604.630005 574.261475,604.150940 
	C573.995117,603.912964 573.728699,603.675049 573.483276,603.566650 
	C573.483276,603.566650 573.542053,603.449280 573.246399,603.009460 
	C572.762085,602.500000 572.277771,601.990479 571.747314,601.257263 
	C571.747314,601.257263 571.524170,601.208435 571.163879,600.728088 
	C570.254883,599.647034 569.345825,598.565979 568.445801,597.618225 
	C568.445801,597.618225 568.572327,597.575317 568.299255,597.054810 
	C567.889648,596.658386 567.480042,596.261902 567.060486,595.937683 
	C567.060486,595.937683 567.133301,595.935730 566.979797,595.387451 
	C566.532959,594.776855 566.086182,594.166199 565.635010,593.475647 
	C565.635010,593.475647 565.567871,593.432007 565.266235,592.945923 
	C564.737061,592.160095 564.207947,591.374207 563.689575,590.453491 
	C563.689575,590.453491 563.569214,590.391602 563.244751,589.855774 
	C562.530273,588.851501 561.815796,587.847229 561.087891,586.935913 
	C561.087891,586.935913 561.181580,586.942749 561.010376,586.235596 
	C543.177612,555.153931 541.468933,521.552246 545.539673,487.057953 
	C547.225586,472.772125 551.554749,459.225555 557.087341,446.067169 
	C557.087341,446.067169 557.106262,446.166260 557.629883,445.814209 
	C557.805420,445.212830 557.980896,444.611450 558.055176,444.036591 
	C558.055176,444.036591 558.085632,444.136719 558.647339,443.758423 
	C559.799133,441.551971 560.950928,439.345551 562.690674,436.800598 
	C579.125854,412.083984 601.979736,397.103302 631.249634,392.341278 
	C670.995850,385.874847 703.009766,400.802673 729.907471,429.425690 
	C735.860779,422.681061 741.457092,416.340790 747.328308,409.931641 
	C747.328308,409.931641 747.486694,409.696747 747.569946,409.663208 
	C747.569946,409.663208 747.588928,409.575531 748.047485,409.182556 
	C748.538635,408.554840 749.029724,407.927124 749.278442,407.229248 
	C749.278442,407.229248 749.228516,407.476654 749.792847,407.180756 
	C749.981506,406.807373 750.170105,406.433960 750.095032,406.106323 
	C750.095032,406.106323 750.149170,406.368408 750.724243,406.084869 
	C751.227722,405.409332 751.731201,404.733765 752.052856,404.041962 
	C752.052856,404.041962 752.040710,404.224060 752.581055,403.997437 
	C752.773621,403.665833 752.966187,403.334229 753.038940,403.025452 
	C753.038940,403.025452 753.064636,403.144623 753.561035,402.939026 
	C753.913025,402.531891 754.265015,402.124756 754.698303,401.668549 
	C754.698303,401.668549 754.705444,401.573883 755.069031,401.252014 
	C755.325378,401.039124 755.514282,400.777527 755.550781,400.504974 
	C755.550781,400.504974 755.621460,400.565186 756.071777,400.162567 
	C756.543518,399.520538 757.015320,398.878479 757.318115,398.254120 
	C757.318115,398.254120 757.360168,398.418671 757.885010,398.072876 
	C758.656250,397.089722 759.427429,396.106537 760.060852,395.085541 
	C760.060852,395.085541 760.029236,395.224915 760.564636,395.004395 
	C760.765686,394.682587 760.966736,394.360779 761.617126,393.917542 
	C761.897705,393.724548 762.033875,393.457825 762.548950,392.872314 
	C762.912292,392.416138 763.275696,391.959961 763.521423,391.479218 
	C763.521423,391.479218 763.540161,391.597931 763.982178,391.280762 
	C764.191101,390.987549 764.400024,390.694336 764.463318,390.429657 
	C764.463318,390.429657 764.527161,390.563538 765.024963,390.149292 
	C766.088440,388.807343 767.151917,387.465363 768.064209,386.082520 
	C768.064209,386.082520 768.029480,386.235199 768.582397,386.016907 
	C768.797913,385.691376 769.013489,385.365845 769.670166,384.925293 
	C769.941528,384.735077 770.077637,384.474243 770.579895,383.928558 
	C770.931519,383.504913 771.283142,383.081268 771.645752,382.610992 
	C771.645752,382.610992 771.679749,382.577240 772.049927,382.259644 
	C772.302429,382.043640 772.496155,381.783844 772.493042,381.434143 
	C772.493042,381.434143 772.485168,381.579407 772.959290,381.265106 
	C773.169189,380.954803 773.379089,380.644501 773.390320,380.339691 
	C773.390320,380.339691 773.427246,380.534882 773.993103,380.118134 
	C775.796692,378.372162 777.483826,376.625275 773.859436,374.313843 
	C773.298523,373.859802 772.737610,373.405762 771.953430,372.427673 
	C771.649902,372.209686 771.346436,371.991669 770.946350,371.342560 
	C770.785461,371.058441 770.541748,370.914429 769.975220,370.382263 
	C769.646912,370.194550 769.318604,370.006836 769.021301,370.008820 
	C769.021301,370.008820 769.210938,369.977325 768.997437,369.420532 
	C768.669189,369.211548 768.341003,369.002563 768.006287,368.983856 
	C768.006287,368.983856 768.196594,368.989410 767.997131,368.429260 
	C767.668457,368.221802 767.339722,368.014313 767.014954,367.984985 
	C767.014954,367.984985 767.193054,367.979767 766.978516,367.432861 
	C766.655762,367.225586 766.333069,367.018311 766.014221,366.986023 
	C766.014221,366.986023 766.189209,366.980774 765.975647,366.434845 
	C765.653992,366.227539 765.332397,366.020264 765.008606,365.989258 
	C765.008606,365.989258 765.184937,365.990509 764.977173,365.441559 
	C764.663330,365.219818 764.349426,364.998077 763.854736,364.265533 
	C763.298279,363.827393 762.741760,363.389252 761.924988,362.398071 
	C761.302002,361.888489 760.678955,361.378876 760.052429,360.946747 
	C760.052429,360.946747 760.130005,360.945709 759.928284,360.450409 
	C759.525818,360.096161 759.123291,359.741882 758.683472,359.276642 
	C758.683472,359.276642 758.568665,359.253265 758.276855,358.913971 
	C758.079773,358.682587 757.845215,358.499054 757.553711,358.299347 
	C757.553711,358.299347 757.495544,358.266174 757.304871,358.043243 
	C757.304871,358.043243 757.015076,358.003906 756.831543,357.503296 
	C756.420959,357.167023 756.010315,356.830719 755.537292,356.507660 
	C755.537292,356.507660 755.535095,356.443939 755.119629,355.964661 
	C753.777527,354.922424 752.435364,353.880219 751.085144,352.912262 
	C751.085144,352.912262 751.159302,352.903107 750.853882,352.316620 
	C749.131958,351.022308 747.409973,349.727997 745.644287,348.315918 
	C745.644287,348.315918 745.519348,348.302856 745.064209,347.881012 
	C743.860229,347.068085 742.656250,346.255157 741.260315,345.844482 
	C741.260315,345.844482 741.419006,345.428009 740.977722,345.015869 
	C740.122131,344.492096 739.266479,343.968292 738.349670,343.557007 
	C738.349670,343.557007 738.473450,343.590057 738.106506,343.149841 
	C737.744873,343.033569 737.383301,342.917297 737.052185,342.920563 
	C737.052185,342.920563 737.170166,342.884552 736.852539,342.331421 
	C735.913574,341.857452 734.974548,341.383484 734.028381,340.978638 
	C734.028381,340.978638 734.090881,340.948273 733.706665,340.379486 
	C728.987732,338.040985 724.268860,335.702454 719.452332,333.277618 
	C719.452332,333.277618 719.336914,333.338043 718.750488,332.993774 
	C698.077087,324.072906 676.306274,320.297028 653.240723,319.032654 
	C652.502014,319.072449 651.763367,319.112244 650.089539,319.016937 
	C635.178162,320.022034 620.136108,320.120605 605.386047,322.245300 
	C583.407166,325.411255 562.700073,332.880951 543.919189,344.882843 
	C543.919189,344.882843 543.934448,344.765045 543.396057,344.897125 
	C543.098450,345.105499 542.800781,345.313904 542.533997,345.452332 
	C542.533997,345.452332 542.459839,345.433929 541.967957,345.705231 
	C541.180359,346.207642 540.392700,346.710052 539.339905,347.209198 
	C539.339905,347.209198 539.220947,347.446289 538.668396,347.791138 
	C535.403870,350.172089 532.139282,352.553070 528.945190,354.949493 
	C528.945190,354.949493 528.941833,354.877472 528.373047,355.048676 
	C527.778687,355.561981 527.184265,356.075317 526.744080,356.671997 
	C526.744080,356.671997 526.633728,356.535828 526.126770,356.773163 
	C525.739441,357.159546 525.352112,357.545929 524.325684,358.152100 
	C498.394684,379.555481 479.810791,406.040680 468.777008,438.648865 
	C468.525848,439.260742 468.229279,439.858215 468.029999,440.486572 
	C455.182159,480.992767 453.364441,522.061401 462.361877,563.522095 
	C466.195892,581.189514 471.729401,598.365845 480.933105,614.050476 
	C480.933105,614.050476 480.848877,614.041504 480.984283,614.736206 
	C482.284912,616.883911 483.585571,619.031616 484.908051,621.072144 
	C484.908051,621.072144 484.799652,621.057495 484.917084,621.597656 
	C485.123474,621.894043 485.329834,622.190491 485.457123,622.446533 
	C485.457123,622.446533 485.428589,622.530640 485.756134,623.117432 
	C487.127472,625.143494 488.498810,627.169495 489.879791,629.089050 
	C489.879791,629.089050 489.772858,629.088501 489.969635,629.714478 
	C490.867157,630.925537 491.764679,632.136658 492.685608,633.215271 
	C492.685608,633.215271 492.551147,633.215088 492.756317,633.793945 
	C493.154633,634.230103 493.552948,634.666199 493.970856,635.034851 
	C493.970856,635.034851 493.901550,635.046692 494.090546,635.682678 
	C495.343689,637.193665 496.596832,638.704712 497.859467,640.100952 
	C497.859467,640.100952 497.744354,640.101990 497.966400,640.720764 
	C498.957703,641.852295 499.949005,642.983826 500.962402,644.030334 
	C500.962402,644.030334 500.876678,644.010986 501.041901,644.560425 
	C501.345062,644.777344 501.648224,644.994324 501.938446,645.056702 
	C501.938446,645.056702 501.784332,645.074707 502.019836,645.678101 
	C503.111542,646.963440 504.203247,648.248779 505.325531,649.702942 
	C505.325531,649.702942 505.494568,649.731934 505.707031,650.040771 
	C505.864655,650.238770 506.051605,650.403503 506.305420,650.738586 
	C506.305420,650.738586 506.510986,650.763794 506.693268,651.050720 
	C506.834961,651.231140 507.003693,651.381226 507.285675,651.774902 
	C507.285675,651.774902 507.563934,651.846313 507.699463,652.099854 
M452.219360,637.841736 
	C452.219360,637.841736 452.346710,637.839600 452.111755,637.108704 
	C451.117737,633.716309 448.887604,632.622192 445.405487,632.941772 
	C442.292938,633.227417 439.124542,632.904419 435.546753,632.498596 
	C434.703796,632.615967 433.860870,632.733337 432.165802,633.004700 
	C430.438202,632.953735 428.710571,632.902710 426.638428,632.548584 
	C426.098053,632.649719 425.557678,632.750916 424.099304,633.006226 
	C420.059998,632.954895 416.020660,632.903564 411.433289,632.470886 
	C409.961578,632.597290 408.489838,632.723755 406.345154,633.001404 
	C405.890839,632.951599 405.436554,632.901733 404.275787,632.432800 
	C395.190186,632.573181 386.104614,632.713562 376.166473,633.007996 
	C374.438080,632.956177 372.709656,632.904358 370.275330,632.432800 
	C361.857269,632.570557 353.439209,632.708313 344.220215,632.998047 
	C343.138153,632.950073 342.056122,632.902039 340.734375,632.529297 
	C340.553040,632.326660 340.343475,632.159485 339.977875,631.094543 
	C340.030304,617.713013 340.082733,604.331482 340.546112,590.304565 
	C340.409637,587.552795 340.273163,584.801025 340.002472,581.114136 
	C340.043182,562.727966 340.083893,544.341736 340.504547,525.467773 
	C340.377747,524.326355 340.250946,523.184875 339.991516,521.108826 
	C340.038605,508.391968 340.085693,495.675140 340.438019,482.625305 
	C340.335083,482.097198 340.232147,481.569061 339.988098,480.107727 
	C340.037262,468.389252 340.086426,456.670776 340.522247,444.414703 
	C340.392914,442.958771 340.263580,441.502838 339.994263,439.112793 
	C340.041992,424.730103 340.089722,410.347443 340.321381,395.756622 
	C340.447296,395.481842 340.385986,395.241211 340.001801,394.101654 
	C340.040558,386.390442 340.079346,378.679260 340.304749,370.758789 
	C340.433075,370.481812 340.371185,370.239410 339.982239,369.100250 
	C340.031708,363.383972 340.081207,357.667694 340.518951,351.414825 
	C340.389130,349.959259 340.259338,348.503662 339.991760,346.113586 
	C339.892456,338.679932 339.793152,331.246277 339.637512,323.186310 
	C338.746735,322.777161 337.855927,322.368042 336.289093,321.494568 
	C335.318176,321.333496 334.347443,321.032928 333.376312,321.031738 
	C310.347900,321.003723 287.319397,320.991486 264.291077,321.045563 
	C262.865448,321.048920 261.441132,321.620209 259.262329,322.383362 
	C259.158142,324.189880 258.971832,325.996002 258.962616,327.803009 
	C258.879181,344.195282 258.826691,360.587708 258.371857,376.260651 
	C258.241882,364.787598 258.089478,353.314728 257.991119,341.841400 
	C257.939301,335.796112 257.981934,329.750000 257.981934,323.704224 
	C257.757385,323.709656 257.532806,323.715057 257.308258,323.720459 
	C257.308258,450.224731 257.308258,576.729004 257.308258,703.233276 
	C257.984955,701.105164 257.920380,698.969971 257.997101,696.839844 
	C258.223389,690.559692 258.505615,684.281616 258.931824,678.926575 
	C258.938416,684.330383 258.833466,689.737427 258.991547,695.136780 
	C259.093994,698.637451 259.580566,702.126770 260.521088,706.212952 
	C262.134705,706.471985 263.748199,706.956787 265.362000,706.957581 
	C338.503052,706.995605 411.644165,707.000488 484.785187,706.934143 
	C486.468781,706.932617 488.151581,706.071594 489.975830,705.167480 
	C489.656433,704.403442 489.337067,703.639465 488.943420,702.181824 
	C476.960083,681.131104 464.976776,660.080322 452.942963,638.489075 
	C452.706512,638.231079 452.470062,637.973083 452.219360,637.841736 
z"/>
<path fill="#12AAFE" opacity="1.000000" stroke="none" 
	d="
M770.215210,370.910522 
	C770.541748,370.914429 770.785461,371.058441 771.149658,371.785828 
	C771.627625,372.469971 771.902161,372.710846 772.176758,372.951721 
	C772.737610,373.405762 773.298523,373.859802 773.934814,374.982788 
	C773.815857,377.279480 773.621521,378.907166 773.427246,380.534882 
	C773.427246,380.534882 773.390320,380.339691 773.213867,380.453186 
	C772.853271,380.904266 772.669189,381.241821 772.485107,381.579407 
	C772.485168,381.579407 772.493042,381.434143 772.294128,381.528290 
	C771.956726,381.940704 771.818237,382.258972 771.679749,382.577240 
	C771.679749,382.577240 771.645752,382.610992 771.332031,382.659851 
	C770.705078,383.186768 770.391785,383.664795 770.078491,384.142822 
	C770.077637,384.474243 769.941528,384.735077 769.216431,385.145874 
	C768.518311,385.656006 768.273865,385.945618 768.029480,386.235199 
	C768.029480,386.235199 768.064209,386.082520 767.799316,386.150452 
	C766.532043,387.666748 765.529602,389.115143 764.527161,390.563538 
	C764.527161,390.563538 764.463318,390.429657 764.256348,390.511139 
	C763.879700,390.927734 763.709900,391.262817 763.540161,391.597931 
	C763.540161,391.597931 763.521423,391.479218 763.265381,391.548889 
	C762.681396,392.118164 762.353577,392.617767 762.025696,393.117371 
	C762.033875,393.457825 761.897705,393.724548 761.172729,394.144440 
	C760.495361,394.655853 760.262268,394.940369 760.029175,395.224915 
	C760.029236,395.224915 760.060852,395.085541 759.769653,395.137817 
	C758.772339,396.266266 758.066284,397.342499 757.360229,398.418701 
	C757.360168,398.418671 757.318115,398.254120 757.066284,398.330872 
	C756.416748,399.126801 756.019104,399.845978 755.621460,400.565186 
	C755.621460,400.565186 755.550781,400.504974 755.327515,400.561707 
	C754.971375,400.936890 754.838440,401.255402 754.705444,401.573883 
	C754.705444,401.573883 754.698303,401.668549 754.355347,401.703674 
	C753.696472,402.207397 753.380554,402.675995 753.064636,403.144592 
	C753.064636,403.144623 753.038940,403.025452 752.878296,403.184875 
	C752.491943,403.637543 752.266357,403.930786 752.040710,404.224060 
	C752.040710,404.224060 752.052856,404.041962 751.843262,404.180786 
	C751.138855,405.002533 750.644043,405.685486 750.149170,406.368408 
	C750.149170,406.368408 750.095032,406.106323 749.983765,406.273712 
	C749.657837,406.786285 749.443176,407.131470 749.228516,407.476654 
	C749.228516,407.476654 749.278442,407.229248 749.059692,407.332825 
	C748.423645,408.149475 748.006287,408.862518 747.588928,409.575531 
	C747.588928,409.575531 747.569946,409.663208 747.408447,409.618774 
	C747.246887,409.574310 746.963806,409.653076 746.963806,409.653076 
	C746.963806,409.653076 747.053467,410.000549 747.053467,410.000549 
	C741.457092,416.340790 735.860779,422.681061 729.907471,429.425690 
	C703.009766,400.802673 670.995850,385.874847 631.249634,392.341278 
	C601.979736,397.103302 579.125854,412.083984 562.165649,436.878418 
	C560.455566,439.349762 559.270630,441.743225 558.085632,444.136719 
	C558.085632,444.136719 558.055176,444.036591 557.869629,444.230316 
	C557.491516,445.004791 557.298828,445.585510 557.106201,446.166260 
	C557.106262,446.166260 557.087341,446.067169 556.815430,446.213013 
	C555.689270,447.746338 554.686462,449.064606 554.003235,450.531738 
	C545.338135,469.139771 543.042847,489.129730 542.125610,509.237366 
	C541.107910,531.549316 544.452515,553.345154 553.280090,574.013916 
	C555.243103,578.610046 558.513245,582.647888 561.181580,586.942749 
	C561.181580,586.942749 561.087891,586.935913 561.083618,587.260742 
	C561.909241,588.520935 562.739258,589.456299 563.569214,590.391602 
	C563.569214,590.391602 563.689575,590.453491 563.571167,590.866028 
	C564.157837,591.996399 564.862854,592.714172 565.567871,593.432007 
	C565.567871,593.432007 565.635010,593.475647 565.555298,593.845398 
	C566.028198,594.788635 566.580750,595.362183 567.133301,595.935730 
	C567.133301,595.935730 567.060486,595.937683 567.124390,596.210327 
	C567.649658,596.847107 568.110962,597.211182 568.572327,597.575317 
	C568.572327,597.575317 568.445801,597.618225 568.445679,597.919556 
	C569.471680,599.216736 570.497925,600.212585 571.524170,601.208435 
	C571.524170,601.208435 571.747314,601.257263 571.718018,601.690918 
	C572.306519,602.566223 572.924255,603.007751 573.542053,603.449280 
	C573.542053,603.449280 573.483276,603.566650 573.540161,603.781860 
	C573.900513,604.208069 574.204041,604.419006 574.507568,604.630005 
	C574.507568,604.630005 574.368835,604.630127 574.376343,604.944702 
	C575.387451,606.094788 576.391052,606.930298 577.394714,607.765747 
	C577.394714,607.765747 577.188965,607.798218 577.329224,607.950562 
	C577.805847,608.290100 578.142334,608.477356 578.478760,608.664612 
	C578.478760,608.664612 578.320374,608.657593 578.386108,608.916992 
	C579.145264,609.590027 579.838745,610.003662 580.532227,610.417236 
	C580.443054,610.611633 580.353821,610.806091 580.447266,610.953613 
	C580.921875,611.029297 581.213867,611.151978 581.505920,611.274658 
	C581.505920,611.274658 581.656677,611.289490 581.634155,611.737366 
	C582.859802,613.011658 584.107910,613.838135 585.356079,614.664551 
	C585.356079,614.664551 585.210388,614.708008 585.346924,614.865479 
	C585.820618,615.125916 586.157715,615.228882 586.494873,615.331787 
	C586.494873,615.331787 586.576843,615.339050 586.636658,615.676880 
	C587.192566,616.303223 587.688599,616.591797 588.184692,616.880371 
	C588.184692,616.880371 588.061035,616.905823 588.235535,617.064758 
	C588.755005,617.379089 589.099915,617.534546 589.444885,617.689941 
	C589.444885,617.689941 589.273499,617.665588 589.359253,617.948669 
	C591.015503,619.120178 592.585938,620.008667 594.156372,620.897095 
	C594.156372,620.897095 594.061707,620.910706 594.197021,621.184448 
	C595.586731,622.489380 596.712402,623.759949 598.115723,624.514221 
	C610.008240,630.906067 622.676392,634.984802 636.496826,636.956055 
	C640.791382,636.978271 644.627625,636.832336 648.445679,637.032227 
	C664.936829,637.895935 680.491455,634.138062 695.270020,627.183960 
	C699.803162,625.050903 703.733337,621.636292 707.939575,618.808533 
	C707.939575,618.808533 707.932434,618.915039 708.218933,618.880066 
	C709.313599,618.150085 710.121704,617.455139 710.929871,616.760193 
	C710.929871,616.760193 710.925842,616.895264 711.204224,616.863281 
	C712.646362,615.831543 713.810120,614.831726 714.973816,613.831848 
	C714.973816,613.831848 714.988159,613.981689 715.131714,613.843506 
	C715.519653,613.459778 715.764038,613.214233 716.008423,612.968750 
	C716.008423,612.968750 716.006348,613.016663 716.336670,612.937683 
	C718.093750,611.500427 719.520447,610.142090 720.947144,608.783752 
	C720.957764,608.446594 721.113953,608.202637 721.979126,607.958801 
	C723.130249,607.050415 723.718018,606.234985 724.305786,605.419617 
	C724.305786,605.419617 724.353088,605.525208 724.631897,605.424683 
	C725.056091,605.018616 725.201477,604.713013 725.346863,604.407410 
	C725.346863,604.407410 725.319641,604.745422 725.614258,604.535156 
	C726.053040,604.019348 726.197205,603.713806 726.341370,603.408264 
	C726.341370,603.408264 726.356750,603.341919 726.748413,603.359863 
	C728.896545,602.002197 730.652893,600.626526 732.409302,599.250916 
	C732.409302,599.250916 732.547241,599.283203 732.544006,599.711426 
	C734.167969,601.689148 735.795166,603.238647 737.422302,604.788147 
	C737.422302,604.788147 737.275024,604.780273 737.270691,605.071228 
	C739.572388,607.542175 741.878479,609.722229 744.184509,611.902222 
	C744.184509,611.902222 744.044922,611.938354 744.188965,612.095093 
	C744.607422,612.496216 744.881958,612.740540 745.156494,612.984802 
	C745.156494,612.984802 745.043640,612.968811 745.124207,613.201050 
	C745.666260,613.699707 746.127808,613.966064 746.589294,614.232483 
	C746.589294,614.232483 746.707581,614.269775 746.724243,614.574890 
	C746.924500,615.215210 747.200745,615.331482 747.569458,615.228821 
	C747.569458,615.228821 747.704712,615.256287 747.722412,615.620117 
	C748.188843,616.314087 748.637573,616.644226 749.086365,616.974365 
	C749.086365,616.974365 749.018372,616.979736 749.097534,617.237732 
	C749.652283,617.768311 750.127808,618.040833 750.603333,618.313354 
	C750.603333,618.313354 750.452881,618.356567 750.565674,618.640747 
	C750.986450,619.079102 751.294556,619.233276 751.602600,619.387512 
	C751.602600,619.387512 751.364136,619.774658 751.480835,619.933350 
	C752.253784,620.530701 752.910095,620.969421 753.566345,621.408081 
	C753.566345,621.408081 753.159729,621.664185 753.358032,621.886353 
	C754.229614,622.567810 754.902954,623.027161 755.576233,623.486511 
	C755.576233,623.486511 755.479492,623.533081 755.493774,623.827515 
	C756.181885,624.632874 756.855652,625.143860 757.529419,625.654846 
	C757.529419,625.654846 757.287842,625.759644 757.388306,625.914795 
	C757.805969,626.333557 758.123291,626.597107 758.440552,626.860718 
	C758.440552,626.860718 758.158203,626.827881 758.266357,627.028748 
	C759.369629,628.103821 760.364685,628.978027 761.359741,629.852234 
	C761.359741,629.852234 761.114807,629.903687 761.262573,630.031189 
	C761.722412,630.407227 762.034485,630.655762 762.346558,630.904358 
	C762.346558,630.904358 762.102966,630.889038 762.222656,631.096619 
	C763.638916,632.513306 764.935547,633.722412 766.232178,634.931519 
	C766.232178,634.931519 766.050171,634.953857 766.204834,635.094727 
	C766.648254,635.475952 766.937012,635.716370 767.225708,635.956726 
	C767.225708,635.956726 767.036987,635.962036 767.192566,636.101562 
	C767.625122,636.489807 767.902161,636.738525 768.179138,636.987305 
	C768.179138,636.987305 768.007324,636.994324 768.172119,637.127808 
	C768.616211,637.498108 768.895569,637.734924 769.174866,637.971741 
	C769.174866,637.971741 769.064514,637.955688 769.138550,638.191650 
	C769.678528,638.686584 770.144470,638.945435 770.610474,639.204346 
	C770.610474,639.204346 770.725220,639.241699 770.743042,639.605591 
	C771.225037,640.296387 771.689209,640.623352 772.153320,640.950378 
	C772.494873,640.957153 772.751648,641.108093 773.044189,641.946533 
	C773.804443,642.985229 774.444275,643.480713 775.084045,643.976196 
	C775.084045,643.976196 775.017761,643.984009 774.998291,644.319824 
	C774.520447,646.293152 774.062134,647.930542 773.603821,649.567993 
	C773.498901,649.420288 773.393921,649.272583 773.196045,649.388367 
	C772.967407,649.960144 772.831665,650.268372 772.695923,650.576599 
	C772.695923,650.576599 772.682373,650.642578 772.351685,650.680420 
	C771.717041,651.198608 771.413086,651.679016 771.109131,652.159424 
	C771.109131,652.159424 771.086914,652.058228 770.914062,652.212891 
	C770.510559,652.653442 770.280029,652.939453 770.049438,653.225403 
	C770.049438,653.225403 770.070007,653.098572 769.784424,653.141174 
	C767.766235,655.288696 766.033630,657.393616 764.301025,659.498596 
	C764.301025,659.498596 764.287659,659.282959 764.045288,659.349060 
	C762.945984,660.426270 762.088928,661.437439 761.231934,662.448547 
	C761.231934,662.448547 761.207642,662.216492 760.984863,662.294067 
	C759.875854,663.349670 758.989685,664.327759 758.103577,665.305847 
	C758.103577,665.305847 758.036072,665.078491 757.923523,665.223572 
	C757.571228,665.662781 757.331482,665.956848 757.091736,666.250916 
	C756.617310,666.804382 756.142944,667.357849 755.096680,668.055664 
	C754.194458,668.676392 753.864136,669.152832 753.533813,669.629272 
	C753.533813,669.629272 753.281128,669.449158 753.075562,669.493530 
	C751.928589,670.435059 750.987183,671.332153 750.045776,672.229309 
	C750.045776,672.229309 750.060181,672.088440 749.825500,672.116882 
	C749.071167,672.431030 748.551514,672.716675 747.694946,673.066956 
	C746.604858,674.142029 745.851685,675.152527 745.098511,676.163086 
	C745.098511,676.163086 745.088745,676.086487 744.751404,676.083984 
	C740.501953,678.909912 736.589844,681.738342 732.677734,684.566772 
	C732.677795,684.566833 732.596680,684.740601 732.143921,684.603210 
	C730.288147,685.499268 728.885193,686.532715 727.482239,687.566162 
	C727.482239,687.566162 727.442932,687.543030 727.058350,687.459106 
	C725.649353,688.119202 724.624878,688.863281 723.600403,689.607361 
	C723.600403,689.607361 723.508057,689.720947 723.084106,689.578369 
	C721.595886,690.158752 720.531677,690.881653 719.467468,691.604614 
	C719.467468,691.604614 719.411621,691.625305 718.997559,691.476990 
	C710.718811,694.254028 702.854065,697.179382 694.989380,700.104675 
	C694.989380,700.104675 695.010071,700.029846 694.622070,700.024658 
	C692.757080,700.199890 691.235718,700.211304 689.809814,700.585999 
	C665.533752,706.965454 640.831726,707.556458 616.140930,704.756226 
	C592.347656,702.057739 569.846558,694.592468 548.835693,682.898560 
	C547.306885,682.047607 545.490723,681.713196 543.808105,681.138672 
	C543.808105,681.138672 543.917175,681.127380 543.783508,680.848999 
	C542.298157,679.969055 540.946472,679.367554 539.594788,678.766052 
	C539.594788,678.766052 539.376221,678.789185 539.356506,678.332397 
	C538.185120,677.273804 537.033447,676.671936 535.881775,676.070068 
	C535.881775,676.070068 535.961975,676.049805 535.794067,675.875549 
	C535.305054,675.521606 534.983948,675.341919 534.662842,675.162170 
	C534.662842,675.162170 534.879578,675.153442 534.711426,675.036438 
	C534.196838,674.817139 533.850464,674.714783 533.504089,674.612427 
	C533.504089,674.612427 533.437805,674.618042 533.422607,674.243896 
	C532.099609,673.139465 530.791870,672.409180 529.484131,671.678894 
	C529.484131,671.678894 529.411499,671.664734 529.355286,671.328491 
	C528.799622,670.706604 528.300110,670.420959 527.800659,670.135376 
	C527.800659,670.135376 527.878601,670.131042 527.826660,669.823120 
	C526.464783,668.686035 525.154846,667.856812 523.844910,667.027527 
	C523.523010,667.035461 523.260437,666.914551 522.919922,666.116333 
	C522.060547,665.163574 521.338562,664.759277 520.616516,664.354919 
	C520.616516,664.354919 520.730408,664.334106 520.658630,664.061157 
	C519.882996,663.397339 519.179138,663.006531 518.475281,662.615784 
	C518.475281,662.615784 518.449463,662.576538 518.437927,662.237793 
	C517.781311,661.521484 517.136230,661.144043 516.491089,660.766602 
	C516.491089,660.766602 516.280884,660.729675 516.265930,660.421387 
	C516.101501,659.824219 515.872620,659.732422 515.564392,659.837646 
	C515.564392,659.837646 515.268616,659.764404 515.236938,659.435364 
	C515.070923,658.830505 514.861450,658.750549 514.576721,658.866333 
	C514.576721,658.866333 514.305847,658.818970 514.255676,658.395203 
	C513.746643,657.658203 513.287842,657.344971 512.828979,657.031738 
	C512.269043,656.584290 511.709106,656.136902 511.012695,655.090820 
	C510.081268,653.938538 509.286285,653.385071 508.491333,652.831543 
	C508.491333,652.831543 508.218170,652.737732 508.203186,652.413818 
	C508.055847,651.815979 507.847748,651.734741 507.563934,651.846313 
	C507.563934,651.846313 507.285675,651.774902 507.250549,651.427734 
	C507.067261,650.782898 506.832458,650.677368 506.510986,650.763794 
	C506.510986,650.763794 506.305420,650.738586 506.279755,650.411377 
	C506.090424,649.774231 505.837250,649.656860 505.494568,649.731934 
	C505.494568,649.731934 505.325531,649.702942 505.365997,649.268372 
	C504.199066,647.580750 502.991699,646.327759 501.784332,645.074707 
	C501.784332,645.074707 501.938446,645.056702 501.806213,644.898987 
	C501.408203,644.497803 501.142456,644.254395 500.876678,644.010986 
	C500.876678,644.010986 500.962402,644.030334 500.912048,643.732300 
	C499.822571,642.323547 498.783447,641.212769 497.744354,640.101990 
	C497.744354,640.101990 497.859467,640.100952 497.842560,639.792480 
	C496.517609,638.004944 495.209564,636.525818 493.901550,635.046692 
	C493.901550,635.046692 493.970856,635.034851 493.900269,634.760620 
	C493.403534,634.062561 492.977325,633.638855 492.551147,633.215088 
	C492.551147,633.215088 492.685608,633.215271 492.710541,632.926636 
	C491.747955,631.454834 490.760406,630.271667 489.772858,629.088501 
	C489.772858,629.088501 489.879791,629.089050 489.856140,628.768677 
	C488.364502,626.475708 486.896545,624.503174 485.428589,622.530640 
	C485.428589,622.530640 485.457123,622.446533 485.464661,622.185913 
	C485.248047,621.636047 485.023834,621.346802 484.799652,621.057495 
	C484.799652,621.057495 484.908051,621.072144 484.872681,620.762512 
	C483.507812,618.315735 482.178345,616.178650 480.848877,614.041504 
	C480.848877,614.041504 480.933105,614.050476 480.927795,613.705078 
	C480.397858,611.800293 479.917511,610.224365 479.341553,608.684204 
	C475.216522,597.653259 470.289398,586.851074 467.095062,575.558105 
	C460.246338,551.345642 457.213440,526.675964 458.776428,501.327698 
	C460.021179,481.140137 462.853699,461.425659 469.039215,442.181641 
	C469.449585,440.904999 469.104736,439.385681 469.111176,437.979218 
	C479.810791,406.040680 498.394684,379.555481 524.846436,358.168457 
	C525.789307,357.635132 526.211548,357.085480 526.633728,356.535828 
	C526.633728,356.535828 526.744080,356.671997 527.005249,356.660675 
	C527.824890,356.058716 528.383362,355.468079 528.941833,354.877441 
	C528.941833,354.877472 528.945190,354.949493 529.266541,354.900879 
	C532.798889,352.383575 536.009888,349.914917 539.220947,347.446289 
	C539.220947,347.446289 539.339905,347.209198 539.808228,347.340332 
	C541.004272,346.792297 541.732056,346.113098 542.459839,345.433929 
	C542.459839,345.433929 542.533997,345.452332 542.801514,345.454529 
	C543.357544,345.226196 543.645996,344.995605 543.934448,344.765015 
	C543.934448,344.765045 543.919189,344.882843 544.246094,344.890991 
	C545.969666,344.434906 547.422424,344.093719 548.753723,343.486359 
	C557.180847,339.641937 565.373901,335.179657 574.032959,331.969879 
	C592.634460,325.074554 611.922424,321.332153 631.843567,320.917084 
	C638.246765,320.783630 644.631470,319.765442 651.024658,319.152039 
	C651.763367,319.112244 652.502014,319.072449 653.779053,319.445984 
	C655.194031,320.231567 656.059387,320.898224 656.949097,320.932587 
	C674.627930,321.615448 691.781250,325.001343 708.539917,330.613464 
	C712.049500,331.788788 715.733337,332.443451 719.336914,333.338043 
	C719.336914,333.338043 719.452332,333.277618 719.552063,333.668701 
	C724.464844,336.355927 729.277832,338.652100 734.090881,340.948273 
	C734.090881,340.948273 734.028381,340.978638 734.120850,341.280975 
	C735.198975,342.017059 736.184570,342.450806 737.170166,342.884552 
	C737.170166,342.884552 737.052185,342.920563 737.231323,343.070374 
	C737.764771,343.343506 738.119080,343.466766 738.473450,343.590057 
	C738.473450,343.590057 738.349670,343.557007 738.428833,343.862366 
	C739.478394,344.587799 740.448669,345.007904 741.419006,345.428009 
	C741.419006,345.428009 741.260315,345.844482 741.382568,346.000732 
	C742.843018,346.872284 744.181152,347.587585 745.519348,348.302856 
	C745.519348,348.302856 745.644287,348.315918 745.631714,348.727600 
	C747.465881,350.393890 749.312622,351.648499 751.159302,352.903107 
	C751.159302,352.903107 751.085144,352.912262 751.122803,353.227692 
	C752.618713,354.510071 754.076904,355.476990 755.535095,356.443939 
	C755.535095,356.443939 755.537292,356.507660 755.544678,356.775421 
	C755.709961,357.367432 755.867859,357.691681 756.246033,358.155518 
	C756.809387,358.285461 757.152466,358.275818 757.495544,358.266174 
	C757.495544,358.266174 757.553711,358.299347 757.607178,358.592041 
	C757.963257,359.007568 758.265991,359.130432 758.568665,359.253265 
	C758.568665,359.253265 758.683472,359.276642 758.709595,359.634216 
	C759.200500,360.309784 759.665222,360.627747 760.130005,360.945709 
	C760.130005,360.945709 760.052429,360.946747 760.114258,361.233887 
	C760.845764,361.997681 761.515503,362.474396 762.185242,362.951111 
	C762.741760,363.389252 763.298279,363.827393 764.099548,364.756165 
	C764.624573,365.494690 764.904724,365.742584 765.184937,365.990509 
	C765.184937,365.990509 765.008606,365.989258 765.172791,366.128357 
	C765.621094,366.505188 765.905151,366.742981 766.189209,366.980774 
	C766.189209,366.980774 766.014221,366.986023 766.176025,367.126007 
	C766.622925,367.503906 766.908020,367.741821 767.193054,367.979767 
	C767.193054,367.979767 767.014954,367.984985 767.178101,368.124817 
	C767.626343,368.506226 767.911499,368.747803 768.196594,368.989410 
	C768.196594,368.989410 768.006287,368.983856 768.170532,369.123566 
	C768.626770,369.501282 768.918823,369.739319 769.210938,369.977356 
	C769.210938,369.977325 769.021301,370.008820 769.182556,370.126343 
	C769.634277,370.466064 769.924744,370.688293 770.215210,370.910522 
z"/>
<path fill="#12A9FF" opacity="1.000000" stroke="none" 
	d="
M452.993469,639.029602 
	C464.976776,660.080322 476.960083,681.131104 488.657410,702.795776 
	C486.905548,703.607483 485.439789,703.977600 483.973877,703.978088 
	C411.156219,704.002686 338.338470,703.958984 265.521027,704.080444 
	C260.999603,704.088013 259.941986,702.538208 259.945251,698.285461 
	C260.039337,575.478577 260.041992,452.671661 259.935303,329.864838 
	C259.931335,325.322540 261.188232,323.824066 265.842560,323.871735 
	C287.335693,324.091919 308.832336,323.967712 330.327698,323.976227 
	C338.006592,323.979248 338.010620,323.991180 338.010986,331.782227 
	C338.015747,429.761139 338.012024,527.740051 338.065521,625.718933 
	C338.066833,628.139343 338.698792,630.559326 339.017822,632.991455 
	C338.998993,633.003418 338.993896,632.960815 339.330811,633.205200 
	C341.798126,633.639404 343.928375,633.991943 346.058990,633.994446 
	C376.946411,634.030457 407.833984,634.070374 438.721100,633.968628 
	C443.728027,633.952087 448.586151,633.779480 452.346710,637.839600 
	C452.346710,637.839600 452.219360,637.841736 452.203217,637.987305 
	C452.455872,638.431763 452.724670,638.730713 452.993469,639.029602 
z"/>
<path fill="#16D0FB" opacity="1.000000" stroke="none" 
	d="
M339.036621,632.979553 
	C338.698792,630.559326 338.066833,628.139343 338.065521,625.718933 
	C338.012024,527.740051 338.015747,429.761139 338.010986,331.782227 
	C338.010620,323.991180 338.006592,323.979248 330.327698,323.976227 
	C308.832336,323.967712 287.335693,324.091919 265.842560,323.871735 
	C261.188232,323.824066 259.931335,325.322540 259.935303,329.864838 
	C260.041992,452.671661 260.039337,575.478577 259.945251,698.285461 
	C259.941986,702.538208 260.999603,704.088013 265.521027,704.080444 
	C338.338470,703.958984 411.156219,704.002686 483.973877,703.978088 
	C485.439789,703.977600 486.905548,703.607483 488.694519,703.142578 
	C489.337067,703.639465 489.656433,704.403442 489.461670,705.282043 
	C413.252075,705.380249 337.556671,705.363281 261.861237,705.359070 
	C261.205841,705.359009 260.550446,705.530090 259.895050,705.621216 
	C259.580566,702.126770 259.093994,698.637451 258.991547,695.136780 
	C258.833466,689.737427 258.938416,684.330383 258.916473,678.133057 
	C258.856995,676.892578 258.812836,676.445618 258.851318,675.630615 
	C258.878967,674.514587 258.824005,673.766663 258.835938,672.592285 
	C258.858612,670.442810 258.814392,668.719727 258.851990,666.534424 
	C258.941925,659.432190 258.967773,652.792053 258.955170,646.152039 
	C258.899475,616.774353 258.832733,587.396667 258.839172,557.620605 
	C258.864349,556.147949 258.820374,555.073547 258.859131,553.536865 
	C258.884369,531.055664 258.826843,509.036713 258.837952,486.643799 
	C258.862335,485.513489 258.818176,484.757141 258.855865,483.538208 
	C258.883636,475.055939 258.829498,467.036224 258.842773,458.682800 
	C258.864532,457.899750 258.818909,457.450439 258.854065,456.538269 
	C258.880371,436.056183 258.825928,416.036865 258.840515,395.552704 
	C258.861420,389.051910 258.813263,383.016022 258.765137,376.980103 
	C258.826691,360.587708 258.879181,344.195282 258.962616,327.803009 
	C258.971832,325.996002 259.158142,324.189880 260.097992,322.252075 
	C286.277496,322.066833 311.621307,322.012848 336.965149,321.958862 
	C337.855927,322.368042 338.746735,322.777161 339.427032,323.857178 
	C339.138794,325.355316 338.992889,326.182587 338.992950,327.009857 
	C339.000519,428.999756 339.018860,530.989624 339.036621,632.979553 
z"/>
<path fill="#000100" opacity="1.000000" stroke="none" 
	d="
M258.776398,553.999207 
	C258.820374,555.073547 258.864349,556.147949 258.642395,557.980225 
	C258.248657,559.722595 258.009796,560.706970 258.009155,561.691528 
	C257.987061,595.342041 257.977783,628.992615 258.018066,662.643066 
	C258.019806,664.094543 258.508392,665.545471 258.770172,666.996643 
	C258.814392,668.719727 258.858612,670.442810 258.669556,672.812866 
	C258.547058,674.306152 258.657867,675.152344 258.768677,675.998596 
	C258.812836,676.445618 258.856995,676.892578 258.833557,677.671143 
	C258.505615,684.281616 258.223389,690.559692 257.997101,696.839844 
	C257.920380,698.969971 257.984955,701.105164 257.308258,703.233276 
	C257.308258,576.729004 257.308258,450.224731 257.308258,323.720459 
	C257.532806,323.715057 257.757385,323.709656 257.981934,323.704224 
	C257.981934,329.750000 257.939301,335.796112 257.991119,341.841400 
	C258.089478,353.314728 258.241882,364.787598 258.568481,376.620361 
	C258.813263,383.016022 258.861420,389.051910 258.643005,395.912170 
	C258.247772,397.553894 258.007843,398.371094 258.006805,399.188660 
	C257.983673,417.176025 257.970917,435.163483 258.019257,453.150757 
	C258.022705,454.434875 258.510620,455.717682 258.773285,457.001099 
	C258.818909,457.450439 258.864532,457.899750 258.645386,459.042358 
	C258.511749,467.824005 258.642883,475.912415 258.773987,484.000793 
	C258.818176,484.757141 258.862335,485.513489 258.641113,487.003479 
	C258.248566,488.554779 258.011261,489.372345 258.010406,490.190155 
	C257.989349,510.175873 257.979004,530.161682 258.026581,550.147339 
	C258.029663,551.431885 258.515259,552.715271 258.776398,553.999207 
z"/>
<path fill="#0C64AF" opacity="1.000000" stroke="none" 
	d="
M339.017822,632.991455 
	C339.018860,530.989624 339.000519,428.999756 338.992950,327.009857 
	C338.992889,326.182587 339.138794,325.355316 339.455200,324.170349 
	C339.793152,331.246277 339.892456,338.679932 340.009521,346.987366 
	C340.061737,349.224579 340.096222,350.588013 340.130707,351.951416 
	C340.081207,357.667694 340.031708,363.383972 340.013275,369.800018 
	C340.044312,370.499786 340.118134,370.968048 340.118134,370.968048 
	C340.079346,378.679260 340.040558,386.390442 340.033386,394.800720 
	C340.065002,395.499786 340.137451,395.964752 340.137451,395.964752 
	C340.089722,410.347443 340.041992,424.730103 340.015076,439.986786 
	C340.069153,442.224609 340.102386,443.588470 340.135620,444.952301 
	C340.086426,456.670776 340.037262,468.389252 340.012787,480.892883 
	C340.069214,482.104797 340.100983,482.531525 340.132751,482.958282 
	C340.085693,495.675140 340.038605,508.391968 340.006470,521.965454 
	C340.055786,523.866516 340.090179,524.911072 340.124603,525.955566 
	C340.083893,544.341736 340.043182,562.727966 340.019653,582.024536 
	C340.069641,585.606628 340.102417,588.278320 340.135162,590.949951 
	C340.082733,604.331482 340.030304,617.713013 340.002045,631.784485 
	C340.026215,632.474426 340.114044,632.919434 339.835327,632.966125 
	C339.369049,632.995483 339.181488,632.978149 338.993896,632.960815 
	C338.993896,632.960815 338.998993,633.003418 339.017822,632.991455 
z"/>
<path fill="#15BEF5" opacity="1.000000" stroke="none" 
	d="
M468.944092,438.314026 
	C469.104736,439.385681 469.449585,440.904999 469.039215,442.181641 
	C462.853699,461.425659 460.021179,481.140137 458.776428,501.327698 
	C457.213440,526.675964 460.246338,551.345642 467.095062,575.558105 
	C470.289398,586.851074 475.216522,597.653259 479.341553,608.684204 
	C479.917511,610.224365 480.397858,611.800293 480.920715,613.746826 
	C471.729401,598.365845 466.195892,581.189514 462.361877,563.522095 
	C453.364441,522.061401 455.182159,480.992767 468.029999,440.486572 
	C468.229279,439.858215 468.525848,439.260742 468.944092,438.314026 
z"/>
<path fill="#15BEF5" opacity="1.000000" stroke="none" 
	d="
M543.992615,681.429016 
	C545.490723,681.713196 547.306885,682.047607 548.835693,682.898560 
	C569.846558,694.592468 592.347656,702.057739 616.140930,704.756226 
	C640.831726,707.556458 665.533752,706.965454 689.809814,700.585999 
	C691.235718,700.211304 692.757080,700.199890 694.659180,700.035889 
	C684.161804,702.338196 673.312622,706.005554 662.299866,706.589661 
	C645.309570,707.490906 628.053345,707.607117 611.189514,705.648865 
	C587.252380,702.869324 564.889954,694.255310 543.992615,681.429016 
z"/>
<path fill="#15BEF5" opacity="1.000000" stroke="none" 
	d="
M561.095947,586.589172 
	C558.513245,582.647888 555.243103,578.610046 553.280090,574.013916 
	C544.452515,553.345154 541.107910,531.549316 542.125610,509.237366 
	C543.042847,489.129730 545.338135,469.139771 554.003235,450.531738 
	C554.686462,449.064606 555.689270,447.746338 556.865479,446.206909 
	C551.554749,459.225555 547.225586,472.772125 545.539673,487.057953 
	C541.468933,521.552246 543.177612,555.153931 561.095947,586.589172 
z"/>
<path fill="#000100" opacity="1.000000" stroke="none" 
	d="
M260.208069,705.917114 
	C260.550446,705.530090 261.205841,705.359009 261.861237,705.359070 
	C337.556671,705.363281 413.252075,705.380249 489.391113,705.504028 
	C488.151581,706.071594 486.468781,706.932617 484.785187,706.934143 
	C411.644165,707.000488 338.503052,706.995605 265.362000,706.957581 
	C263.748199,706.956787 262.134705,706.471985 260.208069,705.917114 
z"/>
<path fill="#15BEF5" opacity="1.000000" stroke="none" 
	d="
M650.557129,319.084473 
	C644.631470,319.765442 638.246765,320.783630 631.843567,320.917084 
	C611.922424,321.332153 592.634460,325.074554 574.032959,331.969879 
	C565.373901,335.179657 557.180847,339.641937 548.753723,343.486359 
	C547.422424,344.093719 545.969666,344.434906 544.187927,344.879028 
	C562.700073,332.880951 583.407166,325.411255 605.386047,322.245300 
	C620.136108,320.120605 635.178162,320.022034 650.557129,319.084473 
z"/>
<path fill="#16D0FB" opacity="1.000000" stroke="none" 
	d="
M339.330811,633.205200 
	C339.181488,632.978149 339.369049,632.995483 340.053711,632.995117 
	C340.550781,632.977478 340.974060,632.854004 340.974060,632.854004 
	C342.056122,632.902039 343.138153,632.950073 345.084106,632.987793 
	C354.292389,632.935852 362.636841,632.894165 370.981262,632.852539 
	C372.709656,632.904358 374.438080,632.956177 377.056458,632.995850 
	C386.958405,632.939758 395.970306,632.895813 404.982239,632.851929 
	C405.436554,632.901733 405.890839,632.951599 407.092102,632.989624 
	C409.219788,632.935974 410.600586,632.894104 411.981354,632.852173 
	C416.020660,632.903564 420.059998,632.954895 424.883942,632.992432 
	C426.106720,632.936340 426.544830,632.894043 426.982971,632.851685 
	C428.710571,632.902710 430.438202,632.953735 432.959534,632.991943 
	C434.495789,632.936035 435.238312,632.893005 435.980804,632.849976 
	C439.124542,632.904419 442.292938,633.227417 445.405487,632.941772 
	C448.887604,632.622192 451.117737,633.716309 452.229248,637.474121 
	C448.586151,633.779480 443.728027,633.952087 438.721100,633.968628 
	C407.833984,634.070374 376.946411,634.030457 346.058990,633.994446 
	C343.928375,633.991943 341.798126,633.639404 339.330811,633.205200 
z"/>
<path fill="#15BEF5" opacity="1.000000" stroke="none" 
	d="
M719.043701,333.165894 
	C715.733337,332.443451 712.049500,331.788788 708.539917,330.613464 
	C691.781250,325.001343 674.627930,321.615448 656.949097,320.932587 
	C656.059387,320.898224 655.194031,320.231567 654.143311,319.517578 
	C676.306274,320.297028 698.077087,324.072906 719.043701,333.165894 
z"/>
<path fill="#16D0FB" opacity="1.000000" stroke="none" 
	d="
M707.596802,618.911621 
	C703.733337,621.636292 699.803162,625.050903 695.270020,627.183960 
	C680.491455,634.138062 664.936829,637.895935 648.445679,637.032227 
	C644.627625,636.832336 640.791382,636.978271 636.489624,636.763672 
	C636.015808,636.562256 636.010193,636.176086 636.010193,636.176086 
	C644.623413,635.860229 653.262878,635.863770 661.844299,635.160278 
	C678.361023,633.806213 693.313721,627.763977 707.596802,618.911621 
z"/>
<path fill="#000100" opacity="1.000000" stroke="none" 
	d="
M336.627136,321.726715 
	C311.621307,322.012848 286.277496,322.066833 260.474915,322.024017 
	C261.441132,321.620209 262.865448,321.048920 264.291077,321.045563 
	C287.319397,320.991486 310.347900,321.003723 333.376312,321.031738 
	C334.347443,321.032928 335.318176,321.333496 336.627136,321.726715 
z"/>
<path fill="#15BEF5" opacity="1.000000" stroke="none" 
	d="
M635.660645,636.009949 
	C636.010193,636.176086 636.015808,636.562256 636.022949,636.754639 
	C622.676392,634.984802 610.008240,630.906067 598.115723,624.514221 
	C596.712402,623.759949 595.586731,622.489380 594.193481,621.136719 
	C606.854492,628.439148 620.898254,632.648132 635.660645,636.009949 
z"/>
<path fill="#15BEF5" opacity="1.000000" stroke="none" 
	d="
M695.404114,700.083374 
	C702.854065,697.179382 710.718811,694.254028 718.973511,691.459473 
	C711.515259,694.414185 703.667053,697.238098 695.404114,700.083374 
z"/>
<path fill="#000100" opacity="1.000000" stroke="none" 
	d="
M404.629028,632.642334 
	C395.970306,632.895813 386.958405,632.939758 377.482727,632.918823 
	C386.104614,632.713562 395.190186,632.573181 404.629028,632.642334 
z"/>
<path fill="#15BEF5" opacity="1.000000" stroke="none" 
	d="
M733.898804,340.663879 
	C729.277832,338.652100 724.464844,336.355927 719.600830,333.711853 
	C724.268860,335.702454 728.987732,338.040985 733.898804,340.663879 
z"/>
<path fill="#000100" opacity="1.000000" stroke="none" 
	d="
M370.628296,632.642700 
	C362.636841,632.894165 354.292389,632.935852 345.484558,632.911804 
	C353.439209,632.708313 361.857269,632.570557 370.628296,632.642700 
z"/>
<path fill="#15BEF5" opacity="1.000000" stroke="none" 
	d="
M732.967834,684.394714 
	C736.589844,681.738342 740.501953,678.909912 744.788452,676.095032 
	C741.194458,678.813232 737.226196,681.517944 732.967834,684.394714 
z"/>
<path fill="#15BEF5" opacity="1.000000" stroke="none" 
	d="
M538.944702,347.618713 
	C536.009888,349.914917 532.798889,352.383575 529.231323,354.893127 
	C532.139282,352.553070 535.403870,350.172089 538.944702,347.618713 
z"/>
<path fill="#16D0FB" opacity="1.000000" stroke="none" 
	d="
M744.048096,611.594727 
	C741.878479,609.722229 739.572388,607.542175 737.285339,604.999023 
	C739.506775,606.852905 741.709229,609.070068 744.048096,611.594727 
z"/>
<path fill="#16D0FB" opacity="1.000000" stroke="none" 
	d="
M764.592224,659.324585 
	C766.033630,657.393616 767.766235,655.288696 769.847168,653.155090 
	C768.424744,655.134460 766.654114,657.142456 764.592224,659.324585 
z"/>
<path fill="#15BEF5" opacity="1.000000" stroke="none" 
	d="
M558.366455,443.947571 
	C559.270630,441.743225 560.455566,439.349762 561.871643,437.047668 
	C560.950928,439.345551 559.799133,441.551971 558.366455,443.947571 
z"/>
<path fill="#15BEF5" opacity="1.000000" stroke="none" 
	d="
M485.592346,622.824036 
	C486.896545,624.503174 488.364502,626.475708 489.851318,628.821899 
	C488.498810,627.169495 487.127472,625.143494 485.592346,622.824036 
z"/>
<path fill="#15BEF5" opacity="1.000000" stroke="none" 
	d="
M751.006592,352.609863 
	C749.312622,351.648499 747.465881,350.393890 745.653625,348.786499 
	C747.409973,349.727997 749.131958,351.022308 751.006592,352.609863 
z"/>
<path fill="#16D0FB" opacity="1.000000" stroke="none" 
	d="
M732.252075,598.995789 
	C730.652893,600.626526 728.896545,602.002197 726.776489,603.340454 
	C728.306763,601.782288 730.200806,600.261475 732.252075,598.995789 
z"/>
<path fill="#15BEF5" opacity="1.000000" stroke="none" 
	d="
M480.916565,614.388855 
	C482.178345,616.178650 483.507812,618.315735 484.861755,620.816101 
	C483.585571,619.031616 482.284912,616.883911 480.916565,614.388855 
z"/>
<path fill="#16D0FB" opacity="1.000000" stroke="none" 
	d="
M720.645386,608.920898 
	C719.520447,610.142090 718.093750,611.500427 716.314392,612.928955 
	C717.422363,611.685486 718.883057,610.371765 720.645386,608.920898 
z"/>
<path fill="#15BEF5" opacity="1.000000" stroke="none" 
	d="
M493.996033,635.364685 
	C495.209564,636.525818 496.517609,638.004944 497.837830,639.849854 
	C496.596832,638.704712 495.343689,637.193665 493.996033,635.364685 
z"/>
<path fill="#16D0FB" opacity="1.000000" stroke="none" 
	d="
M737.275696,604.484741 
	C735.795166,603.238647 734.167969,601.689148 732.554993,599.781433 
	C734.089172,601.009216 735.609131,602.595215 737.275696,604.484741 
z"/>
<path fill="#16D0FB" opacity="1.000000" stroke="none" 
	d="
M773.838379,649.347839 
	C774.062134,647.930542 774.520447,646.293152 775.005432,644.287231 
	C779.154907,646.473083 774.810547,647.468323 773.838379,649.347839 
z"/>
<path fill="#15BEF5" opacity="1.000000" stroke="none" 
	d="
M755.327393,356.204285 
	C754.076904,355.476990 752.618713,354.510071 751.126892,353.190552 
	C752.435364,353.880219 753.777527,354.922424 755.327393,356.204285 
z"/>
<path fill="#000100" opacity="1.000000" stroke="none" 
	d="
M340.340637,590.627258 
	C340.102417,588.278320 340.069641,585.606628 340.086792,582.492126 
	C340.273163,584.801025 340.409637,587.552795 340.340637,590.627258 
z"/>
<path fill="#15BEF5" opacity="1.000000" stroke="none" 
	d="
M727.765747,687.414795 
	C728.885193,686.532715 730.288147,685.499268 732.048889,684.590149 
	C730.954163,685.564148 729.501709,686.413818 727.765747,687.414795 
z"/>
<path fill="#16D0FB" opacity="1.000000" stroke="none" 
	d="
M773.710205,380.326508 
	C773.621521,378.907166 773.815857,377.279480 774.022949,375.244354 
	C777.483826,376.625275 775.796692,378.372162 773.710205,380.326508 
z"/>
<path fill="#16D0FB" opacity="1.000000" stroke="none" 
	d="
M764.776062,390.356445 
	C765.529602,389.115143 766.532043,387.666748 767.874878,386.170868 
	C767.151917,387.465363 766.088440,388.807343 764.776062,390.356445 
z"/>
<path fill="#15BEF5" opacity="1.000000" stroke="none" 
	d="
M585.186768,614.406006 
	C584.107910,613.838135 582.859802,613.011658 581.656128,611.809814 
	C582.806274,612.338806 583.911865,613.243164 585.186768,614.406006 
z"/>
<path fill="#15BEF5" opacity="1.000000" stroke="none" 
	d="
M593.988281,620.610718 
	C592.585938,620.008667 591.015503,619.120178 589.383667,617.865601 
	C590.821594,618.441101 592.320923,619.382690 593.988281,620.610718 
z"/>
<path fill="#15BEF5" opacity="1.000000" stroke="none" 
	d="
M745.409546,676.064819 
	C745.851685,675.152527 746.604858,674.142029 747.969482,673.070557 
	C748.763794,673.020996 748.946777,673.032471 749.129700,673.043884 
	C747.993347,674.018066 746.856995,674.992310 745.409546,676.064819 
z"/>
<path fill="#15BEF5" opacity="1.000000" stroke="none" 
	d="
M501.902100,645.376404 
	C502.991699,646.327759 504.199066,647.580750 505.350708,649.183960 
	C504.203247,648.248779 503.111542,646.963440 501.902100,645.376404 
z"/>
<path fill="#15BEF5" opacity="1.000000" stroke="none" 
	d="
M539.843018,678.949707 
	C540.946472,679.367554 542.298157,679.969055 543.784546,680.903809 
	C542.643250,680.535828 541.367249,679.834595 539.843018,678.949707 
z"/>
<path fill="#15BEF5" opacity="1.000000" stroke="none" 
	d="
M745.291748,348.091919 
	C744.181152,347.587585 742.843018,346.872284 741.478516,345.799591 
	C742.656250,346.255157 743.860229,347.068085 745.291748,348.091919 
z"/>
<path fill="#16D0FB" opacity="1.000000" stroke="none" 
	d="
M757.622620,398.245789 
	C758.066284,397.342499 758.772339,396.266266 759.838562,395.156738 
	C759.427429,396.106537 758.656250,397.089722 757.622620,398.245789 
z"/>
<path fill="#15BEF5" opacity="1.000000" stroke="none" 
	d="
M524.009583,667.310425 
	C525.154846,667.856812 526.464783,668.686035 527.823364,669.862061 
	C526.639465,669.336975 525.406860,668.465088 524.009583,667.310425 
z"/>
<path fill="#16D0FB" opacity="1.000000" stroke="none" 
	d="
M766.092590,634.628662 
	C764.935547,633.722412 763.638916,632.513306 762.234863,630.975220 
	C763.402588,631.872803 764.677795,633.099365 766.092590,634.628662 
z"/>
<path fill="#15BEF5" opacity="1.000000" stroke="none" 
	d="
M529.708313,671.886719 
	C530.791870,672.409180 532.099609,673.139465 533.398560,674.220947 
	C532.237366,673.746277 531.084900,672.920471 529.708313,671.886719 
z"/>
<path fill="#15BEF5" opacity="1.000000" stroke="none" 
	d="
M536.034912,676.339478 
	C537.033447,676.671936 538.185120,677.273804 539.313965,678.231079 
	C538.256714,677.927368 537.222412,677.268127 536.034912,676.339478 
z"/>
<path fill="#15BEF5" opacity="1.000000" stroke="none" 
	d="
M571.343994,600.968262 
	C570.497925,600.212585 569.471680,599.216736 568.441162,597.852905 
	C569.345825,598.565979 570.254883,599.647034 571.343994,600.968262 
z"/>
<path fill="#16D0FB" opacity="1.000000" stroke="none" 
	d="
M714.661377,613.941162 
	C713.810120,614.831726 712.646362,615.831543 711.136902,616.857422 
	C711.977173,615.939209 713.163086,614.994873 714.661377,613.941162 
z"/>
<path fill="#15BEF5" opacity="1.000000" stroke="none" 
	d="
M489.871246,629.401489 
	C490.760406,630.271667 491.747955,631.454834 492.698853,632.992859 
	C491.764679,632.136658 490.867157,630.925537 489.871246,629.401489 
z"/>
<path fill="#15BEF5" opacity="1.000000" stroke="none" 
	d="
M577.259277,607.481567 
	C576.391052,606.930298 575.387451,606.094788 574.434875,604.907593 
	C575.365295,605.436340 576.244568,606.316895 577.259277,607.481567 
z"/>
<path fill="#15BEF5" opacity="1.000000" stroke="none" 
	d="
M497.855377,640.411377 
	C498.783447,641.212769 499.822571,642.323547 500.901001,643.774841 
	C499.949005,642.983826 498.957703,641.852295 497.855377,640.411377 
z"/>
<path fill="#15BEF5" opacity="1.000000" stroke="none" 
	d="
M563.406982,590.123657 
	C562.739258,589.456299 561.909241,588.520935 561.090332,587.214294 
	C561.815796,587.847229 562.530273,588.851501 563.406982,590.123657 
z"/>
<path fill="#15BEF5" opacity="1.000000" stroke="none" 
	d="
M723.873718,689.462402 
	C724.624878,688.863281 725.649353,688.119202 727.037231,687.467468 
	C726.316040,688.145691 725.231567,688.731567 723.873718,689.462402 
z"/>
<path fill="#000100" opacity="1.000000" stroke="none" 
	d="
M340.324829,351.683105 
	C340.096222,350.588013 340.061737,349.224579 340.078369,347.454651 
	C340.259338,348.503662 340.389130,349.959259 340.324829,351.683105 
z"/>
<path fill="#15BEF5" opacity="1.000000" stroke="none" 
	d="
M719.751892,691.471436 
	C720.531677,690.881653 721.595886,690.158752 723.014893,689.554443 
	C722.258545,690.228088 721.147400,690.783142 719.751892,691.471436 
z"/>
<path fill="#16D0FB" opacity="1.000000" stroke="none" 
	d="
M761.525085,662.297485 
	C762.088928,661.437439 762.945984,660.426270 764.153198,659.354736 
	C763.608337,660.244995 762.713318,661.195679 761.525085,662.297485 
z"/>
<path fill="#16D0FB" opacity="1.000000" stroke="none" 
	d="
M761.228149,629.546997 
	C760.364685,628.978027 759.369629,628.103821 758.289795,626.888550 
	C759.168823,627.445557 760.132751,628.343689 761.228149,629.546997 
z"/>
<path fill="#16D0FB" opacity="1.000000" stroke="none" 
	d="
M750.349487,672.123657 
	C750.987183,671.332153 751.928589,670.435059 753.216431,669.558594 
	C752.592896,670.392212 751.623047,671.205139 750.349487,672.123657 
z"/>
<path fill="#15BEF5" opacity="1.000000" stroke="none" 
	d="
M737.011353,342.607971 
	C736.184570,342.450806 735.198975,342.017059 734.124512,341.246399 
	C734.974548,341.383484 735.913574,341.857452 737.011353,342.607971 
z"/>
<path fill="#16D0FB" opacity="1.000000" stroke="none" 
	d="
M758.405640,665.172119 
	C758.989685,664.327759 759.875854,663.349670 761.101440,662.291016 
	C760.529846,663.153076 759.618774,664.095703 758.405640,665.172119 
z"/>
<path fill="#000100" opacity="1.000000" stroke="none" 
	d="
M411.707336,632.661499 
	C410.600586,632.894104 409.219788,632.935974 407.428589,632.914062 
	C408.489838,632.723755 409.961578,632.597290 411.707336,632.661499 
z"/>
<path fill="#15BEF5" opacity="1.000000" stroke="none" 
	d="
M741.198364,345.221924 
	C740.448669,345.007904 739.478394,344.587799 738.459473,343.806091 
	C739.266479,343.968292 740.122131,344.492096 741.198364,345.221924 
z"/>
<path fill="#000100" opacity="1.000000" stroke="none" 
	d="
M340.328918,444.683502 
	C340.102386,443.588470 340.069153,442.224609 340.085083,440.453857 
	C340.263580,441.502838 340.392914,442.958771 340.328918,444.683502 
z"/>
<path fill="#15BEF5" opacity="1.000000" stroke="none" 
	d="
M542.213867,345.569580 
	C541.732056,346.113098 541.004272,346.792297 539.940796,347.341980 
	C540.392700,346.710052 541.180359,346.207642 542.213867,345.569580 
z"/>
<path fill="#15BEF5" opacity="1.000000" stroke="none" 
	d="
M565.417053,593.188965 
	C564.862854,592.714172 564.157837,591.996399 563.565796,590.933472 
	C564.207947,591.374207 564.737061,592.160095 565.417053,593.188965 
z"/>
<path fill="#15BEF5" opacity="1.000000" stroke="none" 
	d="
M508.673248,653.052979 
	C509.286285,653.385071 510.081268,653.938538 510.922302,654.832153 
	C510.263947,654.539612 509.559570,653.906982 508.673248,653.052979 
z"/>
<path fill="#15BEF5" opacity="1.000000" stroke="none" 
	d="
M520.785767,664.606323 
	C521.338562,664.759277 522.060547,665.163574 522.847046,665.905396 
	C522.259399,665.781128 521.607239,665.319458 520.785767,664.606323 
z"/>
<path fill="#16D0FB" opacity="1.000000" stroke="none" 
	d="
M710.622437,616.858154 
	C710.121704,617.455139 709.313599,618.150085 708.166016,618.873169 
	C708.656067,618.252930 709.485535,617.604553 710.622437,616.858154 
z"/>
<path fill="#000100" opacity="1.000000" stroke="none" 
	d="
M340.314575,525.711670 
	C340.090179,524.911072 340.055786,523.866516 340.072754,522.432739 
	C340.250946,523.184875 340.377747,524.326355 340.314575,525.711670 
z"/>
<path fill="#16D0FB" opacity="1.000000" stroke="none" 
	d="
M724.078735,605.612427 
	C723.718018,606.234985 723.130249,607.050415 722.200195,607.908569 
	C722.522461,607.235962 723.187073,606.520569 724.078735,605.612427 
z"/>
<path fill="#15BEF5" opacity="1.000000" stroke="none" 
	d="
M567.056519,595.661621 
	C566.580750,595.362183 566.028198,594.788635 565.557495,593.885376 
	C566.086182,594.166199 566.532959,594.776855 567.056519,595.661621 
z"/>
<path fill="#15BEF5" opacity="1.000000" stroke="none" 
	d="
M528.657471,354.963074 
	C528.383362,355.468079 527.824890,356.058716 526.928162,356.618988 
	C527.184265,356.075317 527.778687,355.561981 528.657471,354.963074 
z"/>
<path fill="#16D0FB" opacity="1.000000" stroke="none" 
	d="
M755.401367,623.255005 
	C754.902954,623.027161 754.229614,622.567810 753.558838,621.764221 
	C754.116333,621.954529 754.671387,622.489014 755.401367,623.255005 
z"/>
<path fill="#16D0FB" opacity="1.000000" stroke="none" 
	d="
M747.818237,409.379028 
	C748.006287,408.862518 748.423645,408.149475 749.180908,407.367920 
	C749.029724,407.927124 748.538635,408.554840 747.818237,409.379028 
z"/>
<path fill="#16D0FB" opacity="1.000000" stroke="none" 
	d="
M757.374023,625.390625 
	C756.855652,625.143860 756.181885,624.632874 755.489441,623.773987 
	C756.053406,623.992859 756.635986,624.559631 757.374023,625.390625 
z"/>
<path fill="#16D0FB" opacity="1.000000" stroke="none" 
	d="
M753.393799,621.190430 
	C752.910095,620.969421 752.253784,620.530701 751.617920,619.751953 
	C752.165955,619.932190 752.693604,620.452515 753.393799,621.190430 
z"/>
<path fill="#16D0FB" opacity="1.000000" stroke="none" 
	d="
M750.436707,406.226654 
	C750.644043,405.685486 751.138855,405.002533 751.934204,404.188904 
	C751.731201,404.733765 751.227722,405.409332 750.436707,406.226654 
z"/>
<path fill="#16D0FB" opacity="1.000000" stroke="none" 
	d="
M774.968750,643.695251 
	C774.444275,643.480713 773.804443,642.985229 773.096497,642.172607 
	C773.636719,642.375061 774.245117,642.894653 774.968750,643.695251 
z"/>
<path fill="#000100" opacity="1.000000" stroke="none" 
	d="
M435.763794,632.674316 
	C435.238312,632.893005 434.495789,632.936035 433.385620,632.914917 
	C433.860870,632.733337 434.703796,632.615967 435.763794,632.674316 
z"/>
<path fill="#16D0FB" opacity="1.000000" stroke="none" 
	d="
M755.846619,400.363892 
	C756.019104,399.845978 756.416748,399.126801 757.150757,398.322021 
	C757.015320,398.878479 756.543518,399.520538 755.846619,400.363892 
z"/>
<path fill="#15BEF5" opacity="1.000000" stroke="none" 
	d="
M518.660156,662.845093 
	C519.179138,663.006531 519.882996,663.397339 520.656006,664.118958 
	C520.098450,663.991272 519.471741,663.532776 518.660156,662.845093 
z"/>
<path fill="#15BEF5" opacity="1.000000" stroke="none" 
	d="
M573.394226,603.229370 
	C572.924255,603.007751 572.306519,602.566223 571.741089,601.802795 
	C572.277771,601.990479 572.762085,602.500000 573.394226,603.229370 
z"/>
<path fill="#15BEF5" opacity="1.000000" stroke="none" 
	d="
M526.380249,356.654480 
	C526.211548,357.085480 525.789307,357.635132 525.165955,358.058533 
	C525.352112,357.545929 525.739441,357.159546 526.380249,356.654480 
z"/>
<path fill="#16D0FB" opacity="1.000000" stroke="none" 
	d="
M762.055115,362.674591 
	C761.515503,362.474396 760.845764,361.997681 760.115967,361.195129 
	C760.678955,361.378876 761.302002,361.888489 762.055115,362.674591 
z"/>
<path fill="#15BEF5" opacity="1.000000" stroke="none" 
	d="
M516.659363,660.970581 
	C517.136230,661.144043 517.781311,661.521484 518.417725,662.225830 
	C517.881958,662.093262 517.354797,661.633911 516.659363,660.970581 
z"/>
<path fill="#15BEF5" opacity="1.000000" stroke="none" 
	d="
M580.345825,610.192932 
	C579.838745,610.003662 579.145264,609.590027 578.403687,608.839722 
	C578.956787,608.991516 579.558105,609.480103 580.345825,610.192932 
z"/>
<path fill="#16D0FB" opacity="1.000000" stroke="none" 
	d="
M762.287354,392.994843 
	C762.353577,392.617767 762.681396,392.118164 763.324219,391.561157 
	C763.275696,391.959961 762.912292,392.416138 762.287354,392.994843 
z"/>
<path fill="#15BEF5" opacity="1.000000" stroke="none" 
	d="
M568.435791,597.315063 
	C568.110962,597.211182 567.649658,596.847107 567.129395,596.174194 
	C567.480042,596.261902 567.889648,596.658386 568.435791,597.315063 
z"/>
<path fill="#000100" opacity="1.000000" stroke="none" 
	d="
M426.810699,632.700134 
	C426.544830,632.894043 426.106720,632.936340 425.342957,632.915405 
	C425.557678,632.750916 426.098053,632.649719 426.810699,632.700134 
z"/>
<path fill="#15BEF5" opacity="1.000000" stroke="none" 
	d="
M492.653748,633.504517 
	C492.977325,633.638855 493.403534,634.062561 493.890472,634.794312 
	C493.552948,634.666199 493.154633,634.230103 492.653748,633.504517 
z"/>
<path fill="#16D0FB" opacity="1.000000" stroke="none" 
	d="
M452.968201,638.759338 
	C452.724670,638.730713 452.455872,638.431763 452.210327,637.924011 
	C452.470062,637.973083 452.706512,638.231079 452.968201,638.759338 
z"/>
<path fill="#15BEF5" opacity="1.000000" stroke="none" 
	d="
M756.025757,358.015930 
	C755.867859,357.691681 755.709961,357.367432 755.575928,356.768799 
	C756.010315,356.830719 756.420959,357.167023 756.676025,357.761688 
	C756.520508,358.020081 756.025757,358.015930 756.025757,358.015930 
z"/>
<path fill="#16D0FB" opacity="1.000000" stroke="none" 
	d="
M760.029175,360.698059 
	C759.665222,360.627747 759.200500,360.309784 758.728271,359.689728 
	C759.123291,359.741882 759.525818,360.096161 760.029175,360.698059 
z"/>
<path fill="#16D0FB" opacity="1.000000" stroke="none" 
	d="
M770.447144,638.999756 
	C770.144470,638.945435 769.678528,638.686584 769.148926,638.136902 
	C769.484802,638.162476 769.884277,638.478882 770.447144,638.999756 
z"/>
<path fill="#16D0FB" opacity="1.000000" stroke="none" 
	d="
M772.051086,640.700928 
	C771.689209,640.623352 771.225037,640.296387 770.756348,639.664429 
	C771.150757,639.723450 771.549805,640.087524 772.051086,640.700928 
z"/>
<path fill="#16D0FB" opacity="1.000000" stroke="none" 
	d="
M749.375244,672.978210 
	C748.946777,673.032471 748.763794,673.020996 748.306396,673.005981 
	C748.551514,672.716675 749.071167,672.431030 749.895508,672.127319 
	C750.007141,672.377014 749.813965,672.644775 749.375244,672.978210 
z"/>
<path fill="#15BEF5" opacity="1.000000" stroke="none" 
	d="
M527.911987,670.387817 
	C528.300110,670.420959 528.799622,670.706604 529.335815,671.296997 
	C528.922791,671.281250 528.473083,670.960815 527.911987,670.387817 
z"/>
<path fill="#16D0FB" opacity="1.000000" stroke="none" 
	d="
M753.771545,669.467224 
	C753.864136,669.152832 754.194458,668.676392 754.828247,668.131897 
	C754.757568,668.477661 754.383423,668.891418 753.771545,669.467224 
z"/>
<path fill="#16D0FB" opacity="1.000000" stroke="none" 
	d="
M771.355713,652.048950 
	C771.413086,651.679016 771.717041,651.198608 772.324951,650.700928 
	C772.286682,651.101929 771.944458,651.520203 771.355713,652.048950 
z"/>
<path fill="#16D0FB" opacity="1.000000" stroke="none" 
	d="
M770.329224,384.035706 
	C770.391785,383.664795 770.705078,383.186768 771.326538,382.683167 
	C771.283142,383.081268 770.931519,383.504913 770.329224,384.035706 
z"/>
<path fill="#15BEF5" opacity="1.000000" stroke="none" 
	d="
M512.934937,657.271851 
	C513.287842,657.344971 513.746643,657.658203 514.207458,658.266479 
	C513.819885,658.211609 513.430420,657.861816 512.934937,657.271851 
z"/>
<path fill="#16D0FB" opacity="1.000000" stroke="none" 
	d="
M750.430298,618.105957 
	C750.127808,618.040833 749.652283,617.768311 749.101990,617.203979 
	C749.437195,617.241028 749.847229,617.569824 750.430298,618.105957 
z"/>
<path fill="#16D0FB" opacity="1.000000" stroke="none" 
	d="
M753.312866,403.041809 
	C753.380554,402.675995 753.696472,402.207397 754.314697,401.728210 
	C754.265015,402.124756 753.913025,402.531891 753.312866,403.041809 
z"/>
<path fill="#15BEF5" opacity="1.000000" stroke="none" 
	d="
M557.368042,445.990234 
	C557.298828,445.585510 557.491516,445.004791 557.920288,444.217041 
	C557.980896,444.611450 557.805420,445.212830 557.368042,445.990234 
z"/>
<path fill="#15BEF5" opacity="1.000000" stroke="none" 
	d="
M588.067993,616.631958 
	C587.688599,616.591797 587.192566,616.303223 586.658691,615.711609 
	C587.064331,615.733582 587.507874,616.058594 588.067993,616.631958 
z"/>
<path fill="#000100" opacity="1.000000" stroke="none" 
	d="
M340.285400,482.791809 
	C340.100983,482.531525 340.069214,482.104797 340.083313,481.359497 
	C340.232147,481.569061 340.335083,482.097198 340.285400,482.791809 
z"/>
<path fill="#16D0FB" opacity="1.000000" stroke="none" 
	d="
M748.997314,616.724121 
	C748.637573,616.644226 748.188843,616.314087 747.739990,615.686829 
	C748.129395,615.751038 748.518860,616.112427 748.997314,616.724121 
z"/>
<path fill="#16D0FB" opacity="1.000000" stroke="none" 
	d="
M746.420166,614.031860 
	C746.127808,613.966064 745.666260,613.699707 745.133911,613.144897 
	C745.459045,613.181335 745.855042,613.506287 746.420166,614.031860 
z"/>
<path fill="#16D0FB" opacity="1.000000" stroke="none" 
	d="
M757.366699,666.129395 
	C757.331482,665.956848 757.571228,665.662781 758.037842,665.191895 
	C758.057007,665.346130 757.849365,665.677002 757.366699,666.129395 
z"/>
<path fill="#16D0FB" opacity="1.000000" stroke="none" 
	d="
M745.057373,612.710083 
	C744.881958,612.740540 744.607422,612.496216 744.173096,612.024780 
	C744.328247,612.010315 744.643188,612.222839 745.057373,612.710083 
z"/>
<path fill="#000100" opacity="1.000000" stroke="none" 
	d="
M340.211426,370.863403 
	C340.118134,370.968048 340.044312,370.499786 340.081696,370.265686 
	C340.371185,370.239410 340.433075,370.481812 340.211426,370.863403 
z"/>
<path fill="#16D0FB" opacity="1.000000" stroke="none" 
	d="
M715.737549,613.036438 
	C715.764038,613.214233 715.519653,613.459778 715.056702,613.849976 
	C715.047607,613.697754 715.257141,613.400940 715.737549,613.036438 
z"/>
<path fill="#16D0FB" opacity="1.000000" stroke="none" 
	d="
M770.095215,370.646393 
	C769.924744,370.688293 769.634277,370.466064 769.167053,370.031494 
	C769.318604,370.006836 769.646912,370.194550 770.095215,370.646393 
z"/>
<path fill="#16D0FB" opacity="1.000000" stroke="none" 
	d="
M772.065063,372.689697 
	C771.902161,372.710846 771.627625,372.469971 771.197998,372.001404 
	C771.346436,371.991669 771.649902,372.209686 772.065063,372.689697 
z"/>
<path fill="#15BEF5" opacity="1.000000" stroke="none" 
	d="
M586.310425,615.151123 
	C586.157715,615.228882 585.820618,615.125916 585.335938,614.790283 
	C585.501038,614.695190 585.813538,614.832825 586.310425,615.151123 
z"/>
<path fill="#15BEF5" opacity="1.000000" stroke="none" 
	d="
M543.665283,344.831055 
	C543.645996,344.995605 543.357544,345.226196 542.786133,345.489502 
	C542.800781,345.313904 543.098450,345.105499 543.665283,344.831055 
z"/>
<path fill="#16D0FB" opacity="1.000000" stroke="none" 
	d="
M772.722168,381.422241 
	C772.669189,381.241821 772.853271,380.904266 773.313110,380.450439 
	C773.379089,380.644501 773.169189,380.954803 772.722168,381.422241 
z"/>
<path fill="#15BEF5" opacity="1.000000" stroke="none" 
	d="
M514.645508,658.993713 
	C514.861450,658.750549 515.070923,658.830505 515.184204,659.292480 
	C514.981934,659.399170 514.832336,659.280029 514.645508,658.993713 
z"/>
<path fill="#16D0FB" opacity="1.000000" stroke="none" 
	d="
M769.104187,369.698944 
	C768.918823,369.739319 768.626770,369.501282 768.173706,369.028442 
	C768.341003,369.002563 768.669189,369.211548 769.104187,369.698944 
z"/>
<path fill="#15BEF5" opacity="1.000000" stroke="none" 
	d="
M533.694885,674.799561 
	C533.850464,674.714783 534.196838,674.817139 534.709839,675.144897 
	C534.546204,675.242493 534.215942,675.114624 533.694885,674.799561 
z"/>
<path fill="#15BEF5" opacity="1.000000" stroke="none" 
	d="
M534.793701,675.421631 
	C534.983948,675.341919 535.305054,675.521606 535.802246,675.916138 
	C535.627075,675.981018 535.275818,675.831116 534.793701,675.421631 
z"/>
<path fill="#16D0FB" opacity="1.000000" stroke="none" 
	d="
M768.096863,368.709351 
	C767.911499,368.747803 767.626343,368.506226 767.176147,368.035767 
	C767.339722,368.014313 767.668457,368.221802 768.096863,368.709351 
z"/>
<path fill="#16D0FB" opacity="1.000000" stroke="none" 
	d="
M767.085815,367.706299 
	C766.908020,367.741821 766.622925,367.503906 766.174072,367.038513 
	C766.333069,367.018311 766.655762,367.225586 767.085815,367.706299 
z"/>
<path fill="#16D0FB" opacity="1.000000" stroke="none" 
	d="
M766.082397,366.707825 
	C765.905151,366.742981 765.621094,366.505188 765.173828,366.040192 
	C765.332397,366.020264 765.653992,366.227539 766.082397,366.707825 
z"/>
<path fill="#16D0FB" opacity="1.000000" stroke="none" 
	d="
M765.081055,365.716034 
	C764.904724,365.742584 764.624573,365.494690 764.189941,365.011566 
	C764.349426,364.998077 764.663330,365.219818 765.081055,365.716034 
z"/>
<path fill="#15BEF5" opacity="1.000000" stroke="none" 
	d="
M581.364319,611.105591 
	C581.213867,611.151978 580.921875,611.029297 580.573364,610.660645 
	C580.787842,610.540405 581.023071,610.714294 581.364319,611.105591 
z"/>
<path fill="#15BEF5" opacity="1.000000" stroke="none" 
	d="
M578.328613,608.413879 
	C578.142334,608.477356 577.805847,608.290100 577.321289,607.846680 
	C577.508240,607.781372 577.843384,607.972290 578.328613,608.413879 
z"/>
<path fill="#16D0FB" opacity="1.000000" stroke="none" 
	d="
M758.422729,359.083618 
	C758.265991,359.130432 757.963257,359.007568 757.616943,358.624023 
	C757.845215,358.499054 758.079773,358.682587 758.422729,359.083618 
z"/>
<path fill="#16D0FB" opacity="1.000000" stroke="none" 
	d="
M756.246033,358.155518 
	C756.025757,358.015930 756.520508,358.020081 756.767822,358.011993 
	C757.015076,358.003906 757.304871,358.043243 757.400208,358.154724 
	C757.152466,358.275818 756.809387,358.285461 756.246033,358.155518 
z"/>
<path fill="#16D0FB" opacity="1.000000" stroke="none" 
	d="
M725.162109,604.550903 
	C725.201477,604.713013 725.056091,605.018616 724.642517,605.367859 
	C724.528076,605.132812 724.729065,604.893738 725.162109,604.550903 
z"/>
<path fill="#16D0FB" opacity="1.000000" stroke="none" 
	d="
M726.157837,603.552612 
	C726.197205,603.713806 726.053040,604.019348 725.641235,604.369141 
	C725.526367,604.134766 725.726624,603.895996 726.157837,603.552612 
z"/>
<path fill="#15BEF5" opacity="1.000000" stroke="none" 
	d="
M574.384521,604.390503 
	C574.204041,604.419006 573.900513,604.208069 573.529663,603.717041 
	C573.728699,603.675049 573.995117,603.912964 574.384521,604.390503 
z"/>
<path fill="#15BEF5" opacity="1.000000" stroke="none" 
	d="
M484.858368,621.327576 
	C485.023834,621.346802 485.248047,621.636047 485.504211,622.206116 
	C485.329834,622.190491 485.123474,621.894043 484.858368,621.327576 
z"/>
<path fill="#16D0FB" opacity="1.000000" stroke="none" 
	d="
M754.887207,401.412964 
	C754.838440,401.255402 754.971375,400.936890 755.369995,400.542816 
	C755.514282,400.777527 755.325378,401.039124 754.887207,401.412964 
z"/>
<path fill="#000100" opacity="1.000000" stroke="none" 
	d="
M340.854218,632.691650 
	C340.974060,632.854004 340.550781,632.977478 340.332397,632.948486 
	C340.114044,632.919434 340.026215,632.474426 340.065918,632.251099 
	C340.343475,632.159485 340.553040,632.326660 340.854218,632.691650 
z"/>
<path fill="#16D0FB" opacity="1.000000" stroke="none" 
	d="
M752.310913,404.110748 
	C752.266357,403.930786 752.491943,403.637543 752.938110,403.173462 
	C752.966187,403.334229 752.773621,403.665833 752.310913,404.110748 
z"/>
<path fill="#16D0FB" opacity="1.000000" stroke="none" 
	d="
M762.227417,630.613525 
	C762.034485,630.655762 761.722412,630.407227 761.241211,629.907837 
	C761.417480,629.878906 761.762878,630.100830 762.227417,630.613525 
z"/>
<path fill="#000100" opacity="1.000000" stroke="none" 
	d="
M340.229431,395.860687 
	C340.137451,395.964752 340.065002,395.499786 340.101257,395.267273 
	C340.385986,395.241211 340.447296,395.481842 340.229431,395.860687 
z"/>
<path fill="#16D0FB" opacity="1.000000" stroke="none" 
	d="
M749.510681,407.328705 
	C749.443176,407.131470 749.657837,406.786285 750.115601,406.250824 
	C750.170105,406.433960 749.981506,406.807373 749.510681,407.328705 
z"/>
<path fill="#16D0FB" opacity="1.000000" stroke="none" 
	d="
M760.296875,395.114624 
	C760.262268,394.940369 760.495361,394.655853 760.948120,394.205139 
	C760.966736,394.360779 760.765686,394.682587 760.296875,395.114624 
z"/>
<path fill="#16D0FB" opacity="1.000000" stroke="none" 
	d="
M767.114868,635.682068 
	C766.937012,635.716370 766.648254,635.475952 766.195801,635.003540 
	C766.355957,634.983459 766.679993,635.195435 767.114868,635.682068 
z"/>
<path fill="#16D0FB" opacity="1.000000" stroke="none" 
	d="
M768.079712,636.709717 
	C767.902161,636.738525 767.625122,636.489807 767.191528,636.007202 
	C767.350037,635.992920 767.665161,636.212524 768.079712,636.709717 
z"/>
<path fill="#16D0FB" opacity="1.000000" stroke="none" 
	d="
M769.067932,637.701904 
	C768.895569,637.734924 768.616211,637.498108 768.168945,637.041870 
	C768.320984,637.025696 768.640991,637.228882 769.067932,637.701904 
z"/>
<path fill="#16D0FB" opacity="1.000000" stroke="none" 
	d="
M758.334167,626.555664 
	C758.123291,626.597107 757.805969,626.333557 757.345459,625.790283 
	C757.544067,625.757263 757.885925,626.003967 758.334167,626.555664 
z"/>
<path fill="#16D0FB" opacity="1.000000" stroke="none" 
	d="
M747.190918,409.966095 
	C747.053467,410.000549 746.963806,409.653076 746.963806,409.653076 
	C746.963806,409.653076 747.246887,409.574310 747.366821,409.635529 
	C747.486694,409.696747 747.328308,409.931641 747.190918,409.966095 
z"/>
<path fill="#15BEF5" opacity="1.000000" stroke="none" 
	d="
M738.289978,343.369934 
	C738.119080,343.466766 737.764771,343.343506 737.216064,343.010620 
	C737.383301,342.917297 737.744873,343.033569 738.289978,343.369934 
z"/>
<path fill="#16D0FB" opacity="1.000000" stroke="none" 
	d="
M771.864868,382.418457 
	C771.818237,382.258972 771.956726,381.940704 772.363159,381.551331 
	C772.496155,381.783844 772.302429,382.043640 771.864868,382.418457 
z"/>
<path fill="#16D0FB" opacity="1.000000" stroke="none" 
	d="
M751.465454,619.193176 
	C751.294556,619.233276 750.986450,619.079102 750.643311,618.650635 
	C750.890442,618.534973 751.130554,618.742432 751.465454,619.193176 
z"/>
<path fill="#15BEF5" opacity="1.000000" stroke="none" 
	d="
M500.959290,644.285706 
	C501.142456,644.254395 501.408203,644.497803 501.812683,644.976318 
	C501.648224,644.994324 501.345062,644.777344 500.959290,644.285706 
z"/>
<path fill="#16D0FB" opacity="1.000000" stroke="none" 
	d="
M763.761169,391.439331 
	C763.709900,391.262817 763.879700,390.927734 764.329163,390.496887 
	C764.400024,390.694336 764.191101,390.987549 763.761169,391.439331 
z"/>
<path fill="#16D0FB" opacity="1.000000" stroke="none" 
	d="
M768.305908,386.126038 
	C768.273865,385.945618 768.518311,385.656006 768.995850,385.203369 
	C769.013489,385.365845 768.797913,385.691376 768.305908,386.126038 
z"/>
<path fill="#15BEF5" opacity="1.000000" stroke="none" 
	d="
M505.600800,649.886353 
	C505.837250,649.656860 506.090424,649.774231 506.260956,650.309509 
	C506.051605,650.403503 505.864655,650.238770 505.600800,649.886353 
z"/>
<path fill="#16D0FB" opacity="1.000000" stroke="none" 
	d="
M772.875000,650.426758 
	C772.831665,650.268372 772.967407,649.960144 773.368530,649.598450 
	C773.493347,649.830688 773.300049,650.074707 772.875000,650.426758 
z"/>
<path fill="#15BEF5" opacity="1.000000" stroke="none" 
	d="
M506.602112,650.907227 
	C506.832458,650.677368 507.067261,650.782898 507.207428,651.290649 
	C507.003693,651.381226 506.834961,651.231140 506.602112,650.907227 
z"/>
<path fill="#15BEF5" opacity="1.000000" stroke="none" 
	d="
M589.282104,617.448364 
	C589.099915,617.534546 588.755005,617.379089 588.226196,617.002319 
	C588.401367,616.922913 588.760315,617.064880 589.282104,617.448364 
z"/>
<path fill="#15BEF5" opacity="1.000000" stroke="none" 
	d="
M507.631714,651.973083 
	C507.847748,651.734741 508.055847,651.815979 508.165161,652.274536 
	C507.963165,652.377991 507.815643,652.258240 507.631714,651.973083 
z"/>
<path fill="#16D0FB" opacity="1.000000" stroke="none" 
	d="
M770.317505,653.115234 
	C770.280029,652.939453 770.510559,652.653442 770.965210,652.204956 
	C770.988098,652.363220 770.786804,652.684143 770.317505,653.115234 
z"/>
<path fill="#16D0FB" opacity="1.000000" stroke="none" 
	d="
M747.447876,615.072021 
	C747.200745,615.331482 746.924500,615.215210 746.736572,614.635620 
	C746.957581,614.535095 747.155518,614.709717 747.447876,615.072021 
z"/>
<path fill="#15BEF5" opacity="1.000000" stroke="none" 
	d="
M515.653137,659.973938 
	C515.872620,659.732422 516.101501,659.824219 516.247192,660.316284 
	C516.046387,660.419617 515.879211,660.283203 515.653137,659.973938 
z"/>
<path fill="#000715" opacity="1.000000" stroke="none" 
	d="
M258.851990,666.534424 
	C258.508392,665.545471 258.019806,664.094543 258.018066,662.643066 
	C257.977783,628.992615 257.987061,595.342041 258.009155,561.691528 
	C258.009796,560.706970 258.248657,559.722595 258.573242,558.378540 
	C258.832733,587.396667 258.899475,616.774353 258.955170,646.152039 
	C258.967773,652.792053 258.941925,659.432190 258.851990,666.534424 
z"/>
<path fill="#000715" opacity="1.000000" stroke="none" 
	d="
M258.859131,553.536865 
	C258.515259,552.715271 258.029663,551.431885 258.026581,550.147339 
	C257.979004,530.161682 257.989349,510.175873 258.010406,490.190155 
	C258.011261,489.372345 258.248566,488.554779 258.572510,487.377441 
	C258.826843,509.036713 258.884369,531.055664 258.859131,553.536865 
z"/>
<path fill="#000715" opacity="1.000000" stroke="none" 
	d="
M258.854065,456.538269 
	C258.510620,455.717682 258.022705,454.434875 258.019257,453.150757 
	C257.970917,435.163483 257.983673,417.176025 258.006805,399.188660 
	C258.007843,398.371094 258.247772,397.553894 258.573944,396.377045 
	C258.825928,416.036865 258.880371,436.056183 258.854065,456.538269 
z"/>
<path fill="#000715" opacity="1.000000" stroke="none" 
	d="
M258.855896,483.538208 
	C258.642883,475.912415 258.511749,467.824005 258.578003,459.376099 
	C258.829498,467.036224 258.883636,475.055939 258.855896,483.538208 
z"/>
<path fill="#000715" opacity="1.000000" stroke="none" 
	d="
M258.851318,675.630615 
	C258.657867,675.152344 258.547058,674.306152 258.602631,673.239258 
	C258.824005,673.766663 258.878967,674.514587 258.851318,675.630615 
z"/>
</svg>